<svg width="14" height="14" viewBox="0 0 14 14" fill="none" xmlns="http://www.w3.org/2000/svg">
<g id="Heart">
<path id="Heart_2" fill-rule="evenodd" clip-rule="evenodd" d="M9.56635 0.667099C9.98702 0.667099 10.407 0.726432 10.8064 0.860432C13.267 1.66043 14.1537 4.36043 13.413 6.72043C12.993 7.92643 12.3064 9.0271 11.407 9.92643C10.1197 11.1731 8.70702 12.2798 7.18635 13.2331L7.01969 13.3338L6.84635 13.2264C5.32035 12.2798 3.89969 11.1731 2.60035 9.91977C1.70702 9.02043 1.01969 7.92643 0.593019 6.72043C-0.160315 4.36043 0.726352 1.66043 3.21369 0.846432C3.40702 0.779765 3.60635 0.733099 3.80635 0.707099H3.88635C4.07369 0.679765 4.25969 0.667099 4.44635 0.667099H4.51969C4.93969 0.679765 5.34635 0.753099 5.74035 0.887099H5.77969C5.80635 0.899765 5.82635 0.913765 5.83969 0.926432C5.98702 0.973765 6.12635 1.0271 6.25969 1.10043L6.51302 1.21377C6.57423 1.24641 6.64294 1.2963 6.70233 1.33941C6.73995 1.36673 6.77383 1.39133 6.79969 1.4071C6.81057 1.41352 6.82162 1.41997 6.83277 1.42648C6.88993 1.45985 6.94948 1.49461 6.99969 1.5331C7.74035 0.967099 8.63969 0.660432 9.56635 0.667099ZM11.3398 5.4671C11.6131 5.45977 11.8464 5.24043 11.8664 4.95977V4.88043C11.8864 3.94643 11.3204 3.10043 10.4598 2.77377C10.1864 2.67977 9.88643 2.8271 9.78643 3.1071C9.6931 3.3871 9.83976 3.69377 10.1198 3.7931C10.5471 3.9531 10.8331 4.37377 10.8331 4.83977V4.86043C10.8204 5.0131 10.8664 5.16043 10.9598 5.27377C11.0531 5.3871 11.1931 5.4531 11.3398 5.4671Z" fill="#FF0000"/>
</g>
</svg>
