<svg width="40" height="43" viewBox="0 0 40 43" fill="none" xmlns="http://www.w3.org/2000/svg">
<g id="sugar 3">
<g id="Group">
<g id="Layer 2">
<g id="OBJECTS">
<path id="Vector" d="M6.77718 14.7419C15.4383 12.6487 24.5049 12.9157 33.0269 15.5151C34.038 15.8278 35.206 16.3186 35.4414 17.348C35.5079 17.7658 35.4506 18.1939 35.2764 18.5798C35.1022 18.9656 34.8187 19.2923 34.4608 19.5197C33.7385 19.9647 32.9336 20.2601 32.0942 20.3884C26.9733 21.5351 21.7913 22.6861 16.5614 22.5123C13.8838 22.4472 11.2345 21.9499 8.7166 21.0399C7.60089 20.6273 1.89594 18.221 2.80682 16.6965C3.4867 15.5107 5.56559 15.0373 6.77718 14.7419Z" fill="#D88121"/>
<path id="Vector_2" d="M37.0452 1.33787C37.2729 0.945204 37.5679 0.595336 37.9168 0.304133C38.0986 0.16088 38.3137 0.0655091 38.5422 0.0267991C38.7706 -0.0119109 39.0052 0.00728442 39.2243 0.0826179C39.4532 0.195462 39.6465 0.369162 39.7826 0.58454C39.9187 0.799919 39.9925 1.0486 39.9957 1.30312C39.9864 1.81028 39.8721 2.31005 39.6601 2.7712C38.3227 6.28832 36.2418 9.47759 33.5586 12.1226C32.822 12.848 31.1703 14.7287 31.2051 12.5961C31.2356 10.8587 32.5126 9.01272 33.3015 7.50989C34.4318 5.38399 35.6817 3.32337 37.0452 1.33787Z" fill="#AED5C2"/>
<path id="Vector_3" d="M26.4199 13.0738C26.849 12.0678 27.5978 11.2301 28.551 10.6893C29.2617 10.3662 30.0537 10.2643 30.8234 10.3968C31.5932 10.5293 32.3049 10.8901 32.8657 11.432C33.409 11.9915 33.806 12.6755 34.0218 13.4238C34.2377 14.172 34.2657 14.9617 34.1034 15.7233C33.7521 17.2528 32.8256 18.5897 31.5146 19.4587C30.3074 20.2883 26.7511 21.9952 25.9317 19.9451C25.1124 17.895 25.4654 15.0371 26.4199 13.0738Z" fill="#AED5C2"/>
<path id="Vector_4" d="M27.3263 13.7471C27.6428 13.0128 28.1925 12.4024 28.8909 12.0097C29.4128 11.7719 29.9947 11.6969 30.5601 11.7946C31.1256 11.8923 31.6482 12.158 32.0594 12.557C32.4594 12.9667 32.7518 13.4684 32.9107 14.0177C33.0696 14.567 33.09 15.1469 32.9702 15.7059C32.7136 16.8312 32.0334 17.8153 31.07 18.4553C30.1984 19.0634 27.5834 20.3143 26.9689 18.8115C26.3544 17.3087 26.6246 15.2021 27.3263 13.7471Z" fill="#8CB5A0"/>
<path id="Vector_5" d="M7.18239 13.4256C8.45064 11.5883 9.83221 9.65549 11.9024 8.80852C13.6457 8.10488 15.5764 8.26124 17.3938 8.64781C20.7486 9.38322 23.9034 10.835 26.6407 12.9032C29.378 14.9713 31.6326 17.6065 33.2491 20.627C28.816 23.8735 23.4097 25.5271 17.9124 25.3179C14.146 25.1486 10.4708 24.1077 7.17804 22.2775C6.06668 21.6607 3.12051 20.2665 3.35585 18.9635C3.4866 18.173 4.75049 16.9394 5.2299 16.2705L7.18239 13.4256Z" fill="white"/>
<path id="Vector_6" d="M19.0108 20.7576C24.3324 20.7211 29.5694 19.426 34.2908 16.9788C34.4927 16.8741 34.7195 16.8266 34.9466 16.8417C35.1737 16.8567 35.3923 16.9337 35.5785 17.0641C35.7646 17.1945 35.9113 17.3735 36.0024 17.5813C36.0935 17.7891 36.1256 18.0179 36.0951 18.2427L34.3518 31.0341C34.099 32.8975 33.7547 34.9432 32.3426 36.1768C31.0787 37.2887 29.2919 37.4798 27.5965 37.6275C22.5642 38.0242 17.5304 38.2862 12.4952 38.4136C10.1504 38.4744 7.59214 38.4136 5.77039 36.9586C4.18399 35.6555 3.5259 33.5881 3.06828 31.5988C2.06486 27.2473 1.64427 22.7825 1.81746 18.3209C1.93514 15.3934 3.96608 17.3349 5.76604 18.095C7.71953 18.9192 9.74627 19.5591 11.8196 20.0061C14.1821 20.5164 16.5934 20.7683 19.0108 20.7576Z" fill="#F7A32D"/>
<path id="Vector_7" d="M2.01367 25.105C2.17929 26.8424 2.4495 28.5276 2.77201 30.2129C13.3031 32.7887 24.3512 32.3369 34.6352 28.9099L35.3543 23.6543C24.6926 27.7283 12.991 28.2375 2.01367 25.105Z" fill="#FFB966"/>
<path id="Vector_8" d="M9.11323 30.4041C8.96388 30.4058 8.8157 30.3777 8.6774 30.3215C8.49007 30.2524 8.32776 30.129 8.21127 29.9673C8.09479 29.8055 8.02946 29.6128 8.02367 29.4138C8.02799 29.2932 8.05825 29.175 8.11239 29.0671C8.16652 28.9592 8.24328 28.8641 8.33746 28.7883C8.42025 28.7187 8.51767 28.6685 8.62252 28.6415C8.72737 28.6144 8.83697 28.6111 8.94326 28.6319C8.99071 28.6365 9.03667 28.6509 9.07817 28.6743C9.11966 28.6977 9.15576 28.7295 9.18411 28.7677C9.21247 28.8058 9.23245 28.8496 9.24275 28.8959C9.25306 28.9423 9.25346 28.9903 9.24394 29.0369C9.23441 29.0834 9.21517 29.1275 9.18746 29.1661C9.15975 29.2048 9.1242 29.2372 9.0831 29.2613C9.042 29.2853 8.99629 29.3005 8.94892 29.3058C8.90155 29.3112 8.85359 29.3065 8.80815 29.2921C8.79383 29.2886 8.77888 29.2886 8.76457 29.2921C8.74748 29.3051 8.73325 29.3214 8.72275 29.3401C8.71226 29.3588 8.70572 29.3794 8.70355 29.4007C8.71361 29.4623 8.7399 29.52 8.77972 29.5681C8.81954 29.6162 8.87147 29.6529 8.93018 29.6744C9.00139 29.6984 9.07675 29.7077 9.15168 29.7017C9.22661 29.6957 9.29954 29.6746 9.36601 29.6396C9.45409 29.5967 9.53217 29.5359 9.59523 29.4611C9.65828 29.3863 9.70491 29.2991 9.7321 29.2053C9.77149 29.0143 9.75077 28.8159 9.67277 28.6371C9.59477 28.4583 9.46328 28.3078 9.29627 28.2063C9.0713 28.0786 8.81087 28.0269 8.55397 28.059C8.29707 28.0911 8.0575 28.2053 7.87113 28.3844C7.75752 28.5102 7.65678 28.6469 7.57041 28.7926C7.495 28.9139 7.41355 29.0313 7.32635 29.1445C6.97553 29.6015 6.45944 29.9039 5.88812 29.9871C5.59388 30.0288 5.29388 29.9988 5.0138 29.8997C4.73372 29.8006 4.48191 29.6354 4.27993 29.4181C4.06992 29.1863 3.93246 28.8983 3.88446 28.5896C3.83645 28.281 3.87999 27.9651 4.00972 27.6807C4.14835 27.3926 4.38015 27.1593 4.66787 27.0183C4.95559 26.8773 5.28251 26.8368 5.59612 26.9033C5.77383 26.9442 5.93906 27.0271 6.07787 27.145C6.21667 27.263 6.32499 27.4124 6.39368 27.5808C6.46741 27.7722 6.47394 27.9829 6.41222 28.1785C6.35049 28.3741 6.22414 28.5431 6.05374 28.658C5.95244 28.7185 5.83903 28.7561 5.72155 28.7681C5.60406 28.7801 5.48537 28.7662 5.37385 28.7275C5.27001 28.6935 5.17508 28.6368 5.09593 28.5617C5.01678 28.4866 4.95539 28.3949 4.91624 28.2932C4.89728 28.2508 4.88725 28.2051 4.88675 28.1587C4.88626 28.1124 4.89532 28.0664 4.91336 28.0237C4.93141 27.9809 4.95806 27.9424 4.99167 27.9103C5.02528 27.8783 5.06513 27.8534 5.10875 27.8374C5.15238 27.8213 5.19885 27.8143 5.2453 27.8168C5.29174 27.8194 5.33717 27.8314 5.37877 27.8521C5.42037 27.8729 5.45725 27.9019 5.48714 27.9374C5.51703 27.9729 5.53929 28.0142 5.55254 28.0586C5.56296 28.0707 5.57654 28.0797 5.59176 28.0847C5.60759 28.0915 5.62464 28.095 5.64188 28.095C5.65912 28.095 5.67618 28.0915 5.692 28.0847C5.72982 28.0532 5.75656 28.0105 5.76832 27.9629C5.78008 27.9152 5.77625 27.8651 5.75738 27.8197C5.72922 27.7524 5.68452 27.6933 5.62739 27.6477C5.57027 27.6022 5.50256 27.5717 5.43051 27.5591C5.26922 27.5301 5.10285 27.5543 4.95658 27.628C4.81031 27.7016 4.69211 27.8208 4.61987 27.9674C4.54061 28.1371 4.51484 28.3267 4.54596 28.5112C4.57709 28.6958 4.66364 28.8666 4.7942 29.0011C4.92346 29.1357 5.08291 29.2377 5.25945 29.2989C5.43598 29.36 5.62455 29.3786 5.80968 29.353C6.20525 29.292 6.56156 29.0802 6.80336 28.7622C6.87309 28.671 6.93846 28.5668 7.00819 28.4625C7.11858 28.2794 7.24706 28.1077 7.39172 27.95C7.68538 27.659 8.06768 27.4733 8.47864 27.4222C8.88961 27.3712 9.30596 27.4575 9.66237 27.6677C9.95208 27.8443 10.1792 28.1066 10.312 28.4181C10.4449 28.7296 10.4768 29.0746 10.4033 29.4051C10.3491 29.5872 10.257 29.756 10.1332 29.9004C10.0093 30.0448 9.85629 30.1617 9.68416 30.2434C9.50872 30.3398 9.31338 30.3948 9.11323 30.4041Z" fill="#D88121"/>
<path id="Vector_9" d="M13.9465 30.956C13.7627 30.9567 13.5795 30.9333 13.4017 30.8865C13.1652 30.8261 12.9437 30.7178 12.751 30.5683C12.5583 30.4189 12.3985 30.2315 12.2817 30.0178C12.1567 29.785 12.1037 29.5205 12.1293 29.2577C12.1549 28.9949 12.258 28.7456 12.4255 28.541C12.6149 28.3313 12.8767 28.2004 13.1587 28.1746C13.4407 28.1489 13.722 28.2301 13.9465 28.402C14.064 28.5063 14.1544 28.6375 14.2098 28.7843C14.2652 28.931 14.284 29.089 14.2647 29.2447C14.2571 29.3896 14.2133 29.5303 14.1372 29.6539C14.061 29.7776 13.955 29.8803 13.8288 29.9526C13.7132 30.0138 13.5848 30.0472 13.4539 30.0503C13.323 30.0533 13.1932 30.0258 13.0749 29.97C13.2184 30.0943 13.3883 30.1849 13.5717 30.235C13.895 30.3069 14.2328 30.2736 14.5357 30.1399C14.8385 30.0062 15.0903 29.7792 15.254 29.4922C15.3202 29.3508 15.3784 29.2058 15.4283 29.0579C15.5267 28.7187 15.7045 28.4076 15.947 28.1501C16.1251 27.9874 16.3411 27.8716 16.5756 27.8132C16.81 27.7548 17.0553 27.7556 17.2893 27.8157C17.7313 27.9328 18.1145 28.208 18.3658 28.5888C18.4902 28.7617 18.5793 28.9573 18.6279 29.1645C18.6765 29.3716 18.6837 29.5863 18.6491 29.7963C18.6076 30.0301 18.4971 30.2463 18.3318 30.4173C18.1664 30.5883 17.9537 30.7063 17.7208 30.7562C17.5856 30.7783 17.4473 30.7724 17.3146 30.7388C17.1818 30.7052 17.0575 30.6445 16.9493 30.5607C16.7607 30.417 16.6369 30.2046 16.605 29.97C16.5932 29.8228 16.6204 29.6752 16.6839 29.5418C16.7474 29.4084 16.845 29.2939 16.9668 29.2099C17.0749 29.1268 17.2029 29.0731 17.3381 29.0541C17.4733 29.0351 17.6112 29.0513 17.7382 29.1013C17.8171 29.1394 17.8782 29.2064 17.9087 29.2884C17.9392 29.3703 17.9367 29.4608 17.9019 29.541C17.867 29.6212 17.8024 29.6848 17.7215 29.7186C17.6407 29.7524 17.5498 29.7538 17.468 29.7224C17.4494 29.7191 17.4302 29.7201 17.4121 29.7254C17.3939 29.7306 17.3773 29.74 17.3634 29.7528C17.3395 29.7688 17.3196 29.79 17.3052 29.8149C17.2908 29.8397 17.2824 29.8676 17.2806 29.8962C17.2848 29.9269 17.2955 29.9563 17.312 29.9825C17.3286 30.0087 17.3505 30.0311 17.3765 30.0482C17.4104 30.0754 17.4495 30.0956 17.4914 30.1075C17.5334 30.1195 17.5772 30.1229 17.6205 30.1177C17.7195 30.0904 17.8083 30.0347 17.8757 29.9574C17.9432 29.8802 17.9863 29.7849 17.9997 29.6833C18.0353 29.4345 17.9711 29.1817 17.821 28.9797C17.6665 28.7376 17.4273 28.5612 17.1498 28.4846C17.0242 28.4535 16.8927 28.4538 16.7673 28.4857C16.6418 28.5175 16.5262 28.5798 16.4307 28.667C16.269 28.8568 16.1501 29.0789 16.0821 29.3185C16.0243 29.4883 15.9544 29.6538 15.8729 29.8137C15.6804 30.1556 15.4011 30.4411 15.063 30.6416C14.7249 30.8421 14.3399 30.9505 13.9465 30.956ZM13.1228 28.8711C13.1688 28.9105 13.2033 28.9616 13.2224 29.019C13.2416 29.0764 13.2448 29.1378 13.2318 29.1969C13.2318 29.236 13.2623 29.2881 13.3059 29.3185C13.3316 29.3427 13.3634 29.3595 13.3979 29.3671C13.4324 29.3748 13.4684 29.373 13.502 29.3619C13.5314 29.341 13.5557 29.3138 13.5731 29.2822C13.5904 29.2506 13.6004 29.2155 13.6022 29.1795C13.6082 29.1323 13.6035 29.0844 13.5884 29.0393C13.5733 28.9942 13.5483 28.9531 13.5151 28.9189C13.4566 28.8747 13.3874 28.847 13.3146 28.8386C13.2418 28.8302 13.168 28.8414 13.101 28.8711H13.1228Z" fill="#D88121"/>
<path id="Vector_10" d="M21.1507 30.6256C20.9125 30.6297 20.6767 30.5784 20.4619 30.4759C20.247 30.3733 20.0591 30.2224 19.913 30.0349C19.738 29.7977 19.6488 29.5084 19.6599 29.2142C19.6709 28.92 19.7817 28.6383 19.974 28.4148C20.0244 28.3567 20.0939 28.3182 20.1701 28.3062C20.3803 28.2734 20.5954 28.2923 20.7967 28.3612C20.998 28.4301 21.1793 28.5469 21.325 28.7015C21.3594 28.7329 21.3869 28.771 21.4058 28.8135C21.4247 28.856 21.4346 28.9019 21.435 28.9484C21.4354 28.9949 21.4261 29.0409 21.4078 29.0837C21.3896 29.1264 21.3627 29.165 21.3288 29.197C21.2949 29.2289 21.2548 29.2536 21.211 29.2694C21.1672 29.2853 21.1205 29.292 21.074 29.2891C21.0274 29.2862 20.982 29.2738 20.9404 29.2527C20.8989 29.2315 20.8622 29.2021 20.8325 29.1662C20.718 29.0475 20.5619 28.9774 20.3967 28.9707C20.3499 29.0783 20.3332 29.1966 20.3486 29.3129C20.3639 29.4292 20.4107 29.5391 20.4839 29.631C20.5814 29.7505 20.7091 29.8421 20.8538 29.8963C20.9986 29.9505 21.1552 29.9654 21.3076 29.9393C21.6474 29.8726 21.9468 29.6742 22.14 29.3877C22.2613 29.2023 22.3649 29.006 22.4495 28.8014C22.5105 28.6624 22.5802 28.519 22.6543 28.367C22.7573 28.1445 22.9071 27.9468 23.0936 27.7871C23.2801 27.6275 23.4989 27.5097 23.7351 27.4419C23.9402 27.4054 24.1506 27.4116 24.3532 27.4602C24.5557 27.5088 24.7459 27.5987 24.9119 27.7242C25.1949 27.9455 25.4368 28.2145 25.6266 28.519C25.7617 28.7145 26.167 29.3139 25.9143 29.8829C25.8063 30.0885 25.6432 30.2603 25.4432 30.3792C25.2432 30.498 25.014 30.5593 24.7811 30.5561C24.3948 30.597 24.0066 30.4984 23.6872 30.2781C23.5024 30.1506 23.3632 29.9679 23.2895 29.7563C23.2159 29.5447 23.2117 29.3152 23.2775 29.1011C23.3298 28.9762 23.4106 28.8652 23.5135 28.777C23.6164 28.6888 23.7386 28.6257 23.8702 28.5929C23.9868 28.5595 24.1097 28.5543 24.2287 28.5777C24.3477 28.6011 24.4594 28.6525 24.5545 28.7275C24.6238 28.7851 24.6674 28.8678 24.6756 28.9574C24.6837 29.047 24.6559 29.1362 24.5981 29.2053C24.5403 29.2744 24.4573 29.3178 24.3674 29.326C24.2775 29.3341 24.188 29.3063 24.1187 29.2487C24.1057 29.2428 24.0915 29.2398 24.0773 29.2398C24.063 29.2398 24.0489 29.2428 24.0359 29.2487C24.0081 29.2564 23.9823 29.2696 23.9598 29.2875C23.9373 29.3055 23.9187 29.3277 23.9051 29.353C23.8893 29.4291 23.8966 29.5082 23.9261 29.5801C23.9556 29.6521 24.006 29.7136 24.0707 29.7569C24.2598 29.8765 24.4851 29.9257 24.707 29.8959C24.9206 29.8959 25.1908 29.8047 25.2692 29.631C25.3477 29.4572 25.2692 29.2444 25.0383 28.9186C24.8931 28.6786 24.7056 28.4667 24.4848 28.2932C24.3971 28.2224 24.2957 28.1705 24.187 28.1406C24.0782 28.1107 23.9645 28.1035 23.8528 28.1194C23.7137 28.1708 23.5864 28.2495 23.4786 28.351C23.3708 28.4525 23.2846 28.5747 23.2252 28.7101C23.1599 28.8318 23.1032 28.9577 23.0378 29.0924C22.9359 29.3348 22.8119 29.5674 22.6674 29.7873C22.5195 30.0032 22.33 30.1876 22.1101 30.33C21.8902 30.4724 21.6441 30.57 21.386 30.6169C21.3078 30.624 21.2292 30.6269 21.1507 30.6256Z" fill="#D88121"/>
<path id="Vector_11" d="M29.1612 29.8392C29.0035 29.8392 28.8465 29.8173 28.6949 29.7741C28.3243 29.6625 28.0015 29.4313 27.7774 29.1167C27.5533 28.8021 27.4406 28.4222 27.4572 28.0367C27.461 27.7557 27.5697 27.4863 27.7622 27.2809C27.8859 27.1541 28.0496 27.0736 28.2259 27.053C28.4021 27.0325 28.5801 27.0731 28.7298 27.168C28.8078 27.225 28.8735 27.297 28.9229 27.3799C28.9723 27.4627 29.0045 27.5546 29.0174 27.6501C29.0325 27.7822 29.021 27.9158 28.9835 28.0434C28.9461 28.1709 28.8836 28.2897 28.7995 28.3929C28.7417 28.4617 28.6592 28.5053 28.5696 28.5142C28.48 28.5232 28.3904 28.4968 28.3201 28.4406C28.2513 28.3838 28.2077 28.3023 28.1987 28.2137C28.1897 28.1251 28.2161 28.0366 28.2722 27.9672C28.3004 27.934 28.3208 27.8949 28.3321 27.8529C28.3434 27.8108 28.3453 27.7668 28.3375 27.724C28.319 27.7235 28.3007 27.7268 28.2835 27.7335C28.2663 27.7402 28.2506 27.7503 28.2373 27.7631C28.1691 27.8496 28.1337 27.9572 28.137 28.0671C28.1169 28.3019 28.1778 28.5366 28.3098 28.7322C28.4417 28.9278 28.6368 29.0726 28.8627 29.1425C29.0885 29.2125 29.3315 29.2034 29.5515 29.1168C29.7715 29.0303 29.9552 28.8714 30.0721 28.6665C30.1843 28.4285 30.2607 28.1753 30.2987 27.9151C30.348 27.5235 30.4851 27.1479 30.6997 26.8162C30.8799 26.5718 31.1296 26.3871 31.4165 26.2861C31.7034 26.185 32.0142 26.1723 32.3084 26.2496C32.6027 26.3269 32.8668 26.4906 33.0664 26.7195C33.2661 26.9483 33.392 27.2317 33.428 27.5329C33.4632 27.7939 33.4164 28.0595 33.2938 28.2929C33.1713 28.5262 32.9791 28.716 32.7437 28.8359C32.5988 28.8972 32.4416 28.9245 32.2843 28.9154C32.1271 28.9064 31.9741 28.8613 31.8372 28.7838C31.7146 28.7168 31.6094 28.6223 31.53 28.5077C31.4505 28.393 31.399 28.2615 31.3796 28.1236C31.3738 28.0383 31.4006 27.954 31.4546 27.8876C31.5086 27.8212 31.5858 27.7776 31.6707 27.7655C31.7556 27.7534 31.8419 27.7737 31.9124 27.8224C31.9829 27.8711 32.0323 27.9445 32.0508 28.028C32.0592 28.0605 32.0745 28.0908 32.0955 28.117C32.1165 28.1432 32.1429 28.1647 32.1728 28.18C32.219 28.2053 32.27 28.2206 32.3226 28.2251C32.3751 28.2296 32.428 28.2231 32.4779 28.2061C32.5816 28.1431 32.6643 28.0509 32.7155 27.9412C32.7667 27.8314 32.7841 27.709 32.7655 27.5893C32.7462 27.4225 32.6769 27.2654 32.5665 27.1385C32.4562 27.0116 32.31 26.9209 32.147 26.8782C31.9841 26.8355 31.812 26.8428 31.6533 26.8991C31.4946 26.9555 31.3567 27.0583 31.2575 27.1941C31.1038 27.4469 31.0072 27.7299 30.9743 28.0237C30.9239 28.3563 30.821 28.6788 30.6692 28.9792C30.5152 29.2415 30.295 29.4589 30.0304 29.6098C29.7658 29.7607 29.4661 29.8398 29.1612 29.8392Z" fill="#D88121"/>
<path id="Vector_12" d="M4.35824 22.6904C4.21711 22.7028 4.08576 22.7674 3.99007 22.8715C3.89438 22.9756 3.84131 23.1117 3.84131 23.2529C3.84131 23.3941 3.89438 23.5302 3.99007 23.6343C4.08576 23.7384 4.21711 23.803 4.35824 23.8154C4.49936 23.803 4.63072 23.7384 4.7264 23.6343C4.82209 23.5302 4.87517 23.3941 4.87517 23.2529C4.87517 23.1117 4.82209 22.9756 4.7264 22.8715C4.63072 22.7674 4.49936 22.7028 4.35824 22.6904Z" fill="#E8E8E8"/>
<path id="Vector_13" d="M10.0457 21.248C9.90461 21.2604 9.77326 21.325 9.67757 21.4291C9.58188 21.5333 9.52881 21.6693 9.52881 21.8105C9.52881 21.9517 9.58188 22.0878 9.67757 22.1919C9.77326 22.296 9.90461 22.3606 10.0457 22.373C10.1869 22.3606 10.3182 22.296 10.4139 22.1919C10.5096 22.0878 10.5627 21.9517 10.5627 21.8105C10.5627 21.6693 10.5096 21.5333 10.4139 21.4291C10.3182 21.325 10.1869 21.2604 10.0457 21.248Z" fill="#E8E8E8"/>
<path id="Vector_14" d="M11.9242 23.8281C11.783 23.8405 11.6517 23.9051 11.556 24.0092C11.4603 24.1133 11.4072 24.2494 11.4072 24.3906C11.4072 24.5318 11.4603 24.6679 11.556 24.772C11.6517 24.8761 11.783 24.9407 11.9242 24.9531C12.0653 24.9407 12.1966 24.8761 12.2923 24.772C12.388 24.6679 12.4411 24.5318 12.4411 24.3906C12.4411 24.2494 12.388 24.1133 12.2923 24.0092C12.1966 23.9051 12.0653 23.8405 11.9242 23.8281Z" fill="#E8E8E8"/>
<path id="Vector_15" d="M19.6121 24.5708C19.471 24.5832 19.3397 24.6478 19.244 24.7519C19.1483 24.856 19.0952 24.9921 19.0952 25.1333C19.0952 25.2745 19.1483 25.4105 19.244 25.5146C19.3397 25.6188 19.471 25.6834 19.6121 25.6957C19.7533 25.6834 19.8846 25.6188 19.9803 25.5146C20.076 25.4105 20.1291 25.2745 20.1291 25.1333C20.1291 24.9921 20.076 24.856 19.9803 24.7519C19.8846 24.6478 19.7533 24.5832 19.6121 24.5708Z" fill="#E8E8E8"/>
<path id="Vector_16" d="M25.1429 21.9478C25.0018 21.9601 24.8704 22.0247 24.7747 22.1289C24.6791 22.233 24.626 22.369 24.626 22.5102C24.626 22.6514 24.6791 22.7875 24.7747 22.8916C24.8704 22.9957 25.0018 23.0603 25.1429 23.0727C25.284 23.0603 25.4154 22.9957 25.5111 22.8916C25.6068 22.7875 25.6598 22.6514 25.6598 22.5102C25.6598 22.369 25.6068 22.233 25.5111 22.1289C25.4154 22.0247 25.284 21.9601 25.1429 21.9478Z" fill="#E8E8E8"/>
<path id="Vector_17" d="M7.51359 32.5278C7.36333 32.5278 7.21922 32.5873 7.11297 32.6932C7.00671 32.7991 6.94702 32.9427 6.94702 33.0925C6.94702 33.2422 7.00671 33.3858 7.11297 33.4917C7.21922 33.5976 7.36333 33.6571 7.51359 33.6571C7.66386 33.6571 7.80797 33.5976 7.91422 33.4917C8.02047 33.3858 8.08017 33.2422 8.08017 33.0925C8.08017 32.9427 8.02047 32.7991 7.91422 32.6932C7.80797 32.5873 7.66386 32.5278 7.51359 32.5278Z" fill="#E8E8E8"/>
<path id="Vector_18" d="M9.5577 34.0396C9.41657 34.0519 9.28522 34.1165 9.18953 34.2207C9.09385 34.3248 9.04077 34.4608 9.04077 34.602C9.04077 34.7432 9.09385 34.8793 9.18953 34.9834C9.28522 35.0875 9.41657 35.1521 9.5577 35.1645C9.69883 35.1521 9.83018 35.0875 9.92587 34.9834C10.0216 34.8793 10.0746 34.7432 10.0746 34.602C10.0746 34.4608 10.0216 34.3248 9.92587 34.2207C9.83018 34.1165 9.69883 34.0519 9.5577 34.0396Z" fill="#E8E8E8"/>
<path id="Vector_19" d="M15.1449 32.9321C14.9947 32.9321 14.8506 32.9916 14.7443 33.0975C14.6381 33.2034 14.5784 33.347 14.5784 33.4968C14.5784 33.6465 14.6381 33.7901 14.7443 33.896C14.8506 34.0019 14.9947 34.0614 15.1449 34.0614C15.2952 34.0614 15.4393 34.0019 15.5456 33.896C15.6518 33.7901 15.7115 33.6465 15.7115 33.4968C15.7115 33.347 15.6518 33.2034 15.5456 33.0975C15.4393 32.9916 15.2952 32.9321 15.1449 32.9321Z" fill="#E8E8E8"/>
<path id="Vector_20" d="M21.3773 35.4902C21.2362 35.5026 21.1048 35.5672 21.0091 35.6713C20.9134 35.7755 20.8604 35.9115 20.8604 36.0527C20.8604 36.1939 20.9134 36.33 21.0091 36.4341C21.1048 36.5382 21.2362 36.6028 21.3773 36.6152C21.5184 36.6028 21.6498 36.5382 21.7454 36.4341C21.8411 36.33 21.8942 36.1939 21.8942 36.0527C21.8942 35.9115 21.8411 35.7755 21.7454 35.6713C21.6498 35.5672 21.5184 35.5026 21.3773 35.4902Z" fill="#E8E8E8"/>
<path id="Vector_21" d="M26.5853 32.9795C26.4442 32.9919 26.3128 33.0565 26.2171 33.1606C26.1214 33.2647 26.0684 33.4008 26.0684 33.542C26.0684 33.6832 26.1214 33.8192 26.2171 33.9233C26.3128 34.0275 26.4442 34.0921 26.5853 34.1044C26.7264 34.0921 26.8578 34.0275 26.9535 33.9233C27.0491 33.8192 27.1022 33.6832 27.1022 33.542C27.1022 33.4008 27.0491 33.2647 26.9535 33.1606C26.8578 33.0565 26.7264 32.9919 26.5853 32.9795Z" fill="#E8E8E8"/>
<path id="Vector_22" d="M30.5819 34.0264C30.4407 34.0387 30.3094 34.1034 30.2137 34.2075C30.118 34.3116 30.0649 34.4477 30.0649 34.5888C30.0649 34.73 30.118 34.8661 30.2137 34.9702C30.3094 35.0743 30.4407 35.139 30.5819 35.1513C30.723 35.139 30.8543 35.0743 30.95 34.9702C31.0457 34.8661 31.0988 34.73 31.0988 34.5888C31.0988 34.4477 31.0457 34.3116 30.95 34.2075C30.8543 34.1034 30.723 34.0387 30.5819 34.0264Z" fill="#E8E8E8"/>
<path id="Vector_23" d="M32.2511 21.6782C32.1099 21.6906 31.9786 21.7552 31.8829 21.8593C31.7872 21.9634 31.7341 22.0995 31.7341 22.2407C31.7341 22.3819 31.7872 22.518 31.8829 22.6221C31.9786 22.7262 32.1099 22.7908 32.2511 22.8032C32.3922 22.7908 32.5235 22.7262 32.6192 22.6221C32.7149 22.518 32.768 22.3819 32.768 22.2407C32.768 22.0995 32.7149 21.9634 32.6192 21.8593C32.5235 21.7552 32.3922 21.6906 32.2511 21.6782Z" fill="#E8E8E8"/>
<path id="Vector_24" d="M28.991 23.0203C28.8606 22.9475 28.7068 22.9286 28.5626 22.9676C28.4184 23.0066 28.2952 23.1003 28.2196 23.2288C28.1981 23.2651 28.1792 23.3028 28.163 23.3417C28.1189 23.4059 28.0887 23.4784 28.0743 23.5548C28.06 23.6312 28.0617 23.7097 28.0794 23.7854C28.0971 23.8611 28.1304 23.9323 28.1772 23.9945C28.224 24.0567 28.2833 24.1084 28.3513 24.1465C28.4192 24.1846 28.4944 24.2082 28.572 24.2158C28.6497 24.2234 28.728 24.2148 28.8021 24.1906C28.8762 24.1664 28.9445 24.1271 29.0025 24.0751C29.0605 24.0232 29.1071 23.9598 29.1392 23.889C29.1392 23.8499 29.1784 23.8152 29.1959 23.7761C29.2642 23.6477 29.281 23.4982 29.243 23.3579C29.205 23.2176 29.1149 23.097 28.991 23.0203Z" fill="#E8E8E8"/>
<path id="Vector_25" d="M33.6066 19.1895C33.4563 19.1895 33.3122 19.2489 33.206 19.3548C33.0997 19.4607 33.04 19.6043 33.04 19.7541C33.04 19.9039 33.0997 20.0475 33.206 20.1534C33.3122 20.2593 33.4563 20.3187 33.6066 20.3187C33.7569 20.3187 33.901 20.2593 34.0072 20.1534C34.1135 20.0475 34.1732 19.9039 34.1732 19.7541C34.1732 19.6043 34.1135 19.4607 34.0072 19.3548C33.901 19.2489 33.7569 19.1895 33.6066 19.1895Z" fill="#E8E8E8"/>
<g id="Vector_26" style="mix-blend-mode:multiply">
<path d="M27.5835 37.6227C29.2614 37.4881 31.0701 37.2839 32.3297 36.172C33.7417 34.9254 34.073 32.8927 34.3388 31.0294L36.0821 18.2379C36.1117 18.0135 36.0789 17.7853 35.9875 17.5781C35.896 17.3709 35.7492 17.1927 35.5632 17.0629C35.3772 16.933 35.159 16.8565 34.9324 16.8416C34.7057 16.8267 34.4793 16.874 34.2778 16.9783C33.5979 17.3345 32.9049 17.6603 32.1989 17.9643C32.2033 18.012 32.2033 18.06 32.1989 18.1076C32.1405 19.1581 31.9829 20.2008 31.7282 21.2219C31.1225 23.6265 30.0294 25.8822 28.5162 27.85C25.4306 31.8633 20.8457 34.5736 15.9732 35.9939C12.8511 36.8718 9.62847 37.3448 6.38501 37.4012C8.12831 38.4349 10.3859 38.4653 12.4866 38.4132C17.5276 38.2858 22.5599 38.0223 27.5835 37.6227Z" fill="#E8E8E8"/>
</g>
</g>
</g>
</g>
</g>
</svg>
