<svg width="48.540100" height="29.901123" viewBox="0 0 48.5401 29.9011" fill="none" xmlns="http://www.w3.org/2000/svg" xmlns:xlink="http://www.w3.org/1999/xlink">
	<desc>
			Created with Pixso.
	</desc>
	<defs/>
	<path id="Vector" d="M18.5411 14.9506C18.5411 10.1748 20.7909 5.93872 24.249 3.19763C21.7076 1.20435 18.4995 0 14.9996 0C6.70801 0 0 6.68616 0 14.9506C0 23.2147 6.70801 29.9011 14.9995 29.9011C18.4993 29.9011 21.7075 28.6968 24.249 26.7032C20.7909 24.0038 18.5411 19.7263 18.5411 14.9506Z" fill="#B92018" fill-opacity="1.000000" fill-rule="nonzero"/>
	<path id="Vector" d="M48.5399 14.9506C48.5399 23.2147 41.8319 29.9011 33.5405 29.9011C30.0406 29.9011 26.8325 28.6968 24.2909 26.7032C27.7908 23.9624 29.999 19.7263 29.999 14.9506C29.999 10.1748 27.749 5.93872 24.2909 3.19763C26.8323 1.20435 30.0406 0 33.5405 0C41.8319 0 48.5401 6.72778 48.5401 14.9506L48.5399 14.9506Z" fill="#B92018" fill-opacity="1.000000" fill-rule="nonzero"/>
</svg>
