<svg width="20.000000" height="20.000000" viewBox="0 0 20 20" fill="none" xmlns="http://www.w3.org/2000/svg" xmlns:xlink="http://www.w3.org/1999/xlink">
	<desc>
			Created with Pixso.
	</desc>
	<defs>
		<clipPath id="clip2_1369">
			<rect id="guide-dog 1" width="20.000000" height="20.000000" fill="white" fill-opacity="0"/>
		</clipPath>
	</defs>
	<rect id="guide-dog 1" width="20.000000" height="20.000000" fill="#FFFFFF" fill-opacity="0"/>
	<g clip-path="url(#clip2_1369)">
		<path id="Vector" d="M10.9321 8.33594C10.8472 8.33594 10.763 8.30029 10.7034 8.23083L4.08131 0.496582C3.97322 0.370361 3.98795 0.18042 4.1142 0.0722656C4.24045 -0.0356445 4.43037 -0.0209961 4.5385 0.105225L11.1606 7.83936C11.2687 7.96558 11.2539 8.15552 11.1277 8.26367C11.071 8.31213 11.0014 8.33594 10.9321 8.33594Z" fill="#DBEDFF" fill-opacity="1.000000" fill-rule="nonzero"/>
		<path id="Vector" d="M5.7353 4.45374C5.43463 3.6283 4.38096 3.1969 3.2435 3.37744C2.10603 3.55811 1.59494 3.73511 1.24998 5.87854C0.905016 8.02209 3.14572 9.41931 3.14572 9.41931L3.50549 9.37305L3.57705 9.08826L3.52104 8.93567C3.04736 8.69189 2.59014 8.3175 2.38217 7.74646C1.86244 6.3197 2.61838 5.27039 3.38205 4.99219C3.9876 4.77161 4.96116 5.08972 5.1901 5.85242C5.25248 6.06018 5.53713 6.08215 5.62924 5.88574C5.8078 5.50513 5.93225 4.99451 5.7353 4.45374Z" fill="#E39B74" fill-opacity="1.000000" fill-rule="nonzero"/>
		<path id="Vector" d="M2.86744 3.5575C2.99131 3.48853 3.11697 3.42896 3.24342 3.37671C2.85763 3.43799 2.46228 3.56934 2.0833 3.78003C0.503338 4.65845 -0.686779 8.62988 3.28185 9.80981L3.41314 9.7395L3.50181 9.3866C0.219744 8.01196 1.36763 4.39124 2.86744 3.5575Z" fill="#DD8858" fill-opacity="1.000000" fill-rule="nonzero"/>
		<path id="Vector" d="M6.55255 12.7729L3.50333 15.7419L3.50333 18.5104L4.79025 20.0002L4.96985 20.0002L6.49419 20.0002C6.71486 20.0002 6.87411 19.7853 6.80614 19.5754C6.65646 19.1132 6.27278 18.8815 5.98595 18.7697C5.72501 18.6678 5.52817 18.4448 5.45763 18.1737C5.25083 17.3792 5.39704 16.5786 5.51978 16.1274C5.5806 15.9039 5.72599 15.7136 5.92458 15.5942C7.12493 14.8723 7.77708 14.0052 8.10489 13.4336L8.10489 13.1875L6.55255 12.7729Z" fill="#E39B74" fill-opacity="1.000000" fill-rule="nonzero"/>
		<path id="Vector" d="M6.00377 19.557C5.85408 19.0746 5.47041 18.8329 5.18357 18.7162C4.92264 18.61 4.7258 18.3772 4.65525 18.0944C4.44846 17.2653 4.59467 16.4299 4.7174 15.9592C4.77822 15.7258 4.92361 15.5273 5.12221 15.4027C6.32256 14.6495 6.97471 13.7446 7.30252 13.1482L7.30252 12.9734L6.5526 12.7731L3.50338 15.7421L3.50338 18.5105L4.79033 20.0004L4.96994 20.0004L5.69186 20.0004C5.91248 20.0004 6.07174 19.776 6.00377 19.557Z" fill="#DD8858" fill-opacity="1.000000" fill-rule="nonzero"/>
		<path id="Vector" d="M17.6268 19.3837C17.4257 18.8961 17.0069 18.6434 16.7293 18.5242C16.6056 18.4709 16.4967 18.3921 16.4076 18.2948L15.6161 13.933C15.6036 13.8042 15.5899 13.6757 15.5736 13.5474L15.3637 11.8923L15.2756 11.793L15.0784 11.8397L13.9793 13.679L13.9793 15.7683L14.7608 18.6971L15.9396 19.3391L15.7688 19.8733L15.8557 19.9954C15.8833 19.998 15.911 19.9999 15.9391 19.9999L17.2164 19.9999C17.5339 19.9999 17.7479 19.6771 17.6268 19.3837Z" fill="#E39B74" fill-opacity="1.000000" fill-rule="nonzero"/>
		<path id="Vector" d="M16.1055 18.5239C15.9818 18.4708 15.8729 18.392 15.7838 18.2946L14.9923 13.9327C14.9798 13.8041 14.9661 13.6755 14.9498 13.5471L14.7936 12.316L13.9793 13.6787L13.9793 15.7681L14.7607 18.697L15.9396 19.339L15.7688 19.873L15.8557 19.9951C15.8833 19.9978 15.911 19.9996 15.9391 19.9996L16.5927 19.9996C16.9101 19.9996 17.1241 19.6769 17.003 19.3834C16.8019 18.8959 16.3831 18.6432 16.1055 18.5239Z" fill="#DD8858" fill-opacity="1.000000" fill-rule="nonzero"/>
		<path id="Vector" d="M18.894 4.20056C17.9347 4.13037 17.5775 3.81201 16.9916 3.11243C16.5548 2.59106 15.8855 2.46362 15.47 2.43823L15.3993 2.62244L14.4085 3.32617L14.4085 5.52307L14.0987 5.83887L13.3595 7.29626C13.9773 7.70691 14.8946 8.15588 16.0346 8.2395L16.137 8.13098C16.1902 7.76062 16.2125 7.53247 16.2125 7.53247C16.6939 6.26196 18.1116 6.60962 18.4325 6.60962C18.6332 6.60962 18.7449 6.43201 18.8006 6.29883C18.8371 6.21155 18.8959 6.13489 18.9701 6.07605C19.3338 5.78796 19.4022 5.18396 19.398 4.74207C19.3954 4.45789 19.1773 4.22119 18.894 4.20056Z" fill="#EAAE8E" fill-opacity="1.000000" fill-rule="nonzero"/>
		<path id="Vector" d="M14.5101 5.33862L14.6137 3.1803L13.507 3.96631L13.3136 3.93347C13.0196 4.54907 12.8634 5.30188 12.4778 6.20654L12.4778 6.57422C12.4778 6.57422 12.8574 6.99048 13.535 7.40845C14.2298 6.37866 14.5101 5.33862 14.5101 5.33862Z" fill="#E39B74" fill-opacity="1.000000" fill-rule="nonzero"/>
		<path id="Vector" d="M15.8541 9.14124L13.1055 7.79639L13.0356 7.93433L10.8139 9.19812L10.7788 10.0039L13.3466 10.7434L15.4061 10.8063L15.6057 10.667C15.7396 10.2007 15.8471 9.73755 15.9323 9.31616L15.8541 9.14124Z" fill="#EAAE8E" fill-opacity="1.000000" fill-rule="nonzero"/>
		<path id="Vector" d="M11.9891 7.25049L11.8278 7.25049C11.5843 7.47363 11.3 7.60767 10.9806 7.68066L10.8724 7.85767L10.8067 9.36328C10.8511 9.35498 10.8953 9.34619 10.9395 9.33667C11.9188 9.12439 12.6618 8.52222 13.2098 7.84778L11.9891 7.25049Z" fill="#E39B74" fill-opacity="1.000000" fill-rule="nonzero"/>
		<path id="Vector" d="M5.56308 9.21899L4.57008 10.4365L2.75457 16.0569L2.75457 18.8849L3.90805 19.6957L4.23433 20.0004L4.79039 20.0004C5.01105 20.0004 5.17031 19.7854 5.10234 19.5754C4.95266 19.1133 4.56898 18.8816 4.28215 18.7698C4.02121 18.668 3.82437 18.4448 3.75383 18.1738C3.54703 17.3793 3.69324 16.5787 3.81598 16.1276C3.8768 15.9041 4.02219 15.7137 4.22078 15.5944C5.52199 14.8119 6.17933 13.8583 6.47726 13.2959C6.60625 13.0524 6.90476 12.9563 7.15285 13.0762C8.04894 13.5095 9.21473 13.7196 10.2129 13.8201L10.3728 13.6794L10.0717 9.21899L5.56308 9.21899Z" fill="#EAAE8E" fill-opacity="1.000000" fill-rule="nonzero"/>
		<path id="Vector" d="M10.087 9.44727L9.98295 7.90527L9.82775 7.7373C8.78123 7.66272 7.52221 7.35876 6.15541 7.35876C3.3469 7.35876 3.02592 9.87305 3.32014 11.4779C3.55178 12.7415 2.80514 14.1212 2.47713 14.6508C2.37952 14.8085 2.31831 14.9855 2.29799 15.1698L2.05475 17.3777C2.00749 17.8069 2.06545 18.2411 2.22366 18.6428L2.59752 19.592C2.69463 19.8385 2.93264 20.0006 3.19764 20.0006L4.23416 20.0006C4.19842 19.6251 3.82385 19.2688 3.57565 19.0714C3.39979 18.9315 3.26268 18.7478 3.18721 18.5363C2.89213 17.7089 2.9644 16.6832 3.06823 15.9994C3.13268 15.5748 3.32948 15.1816 3.63065 14.8755C4.52155 13.9698 4.39088 13.2043 4.78053 10.8074C5.1751 8.38013 7.67018 9.57654 10.087 9.44727Z" fill="#E39B74" fill-opacity="1.000000" fill-rule="nonzero"/>
		<path id="Vector" d="M16.2038 19.3833C16.0043 18.8999 15.5906 18.6472 15.3131 18.5269C15.0917 18.4308 14.9113 18.2583 14.8162 18.0364C14.3734 17.0032 14.2523 15.0686 14.2191 14.0873C14.2073 13.7368 14.3153 13.3938 14.5227 13.1112C14.774 12.7687 14.9907 12.3544 15.1771 11.9081L14.9983 11.6958L10.7788 11.0673L11.1466 13.7688L11.3057 13.8948C11.5223 13.9033 11.7138 13.907 11.8703 13.9082C12.1298 13.9102 12.3483 14.1012 12.3851 14.358C12.6632 16.2998 13.354 18.4257 13.7032 19.4229C13.8242 19.7683 14.15 19.9996 14.5161 19.9996L15.7934 19.9996C16.1109 19.9996 16.3249 19.6769 16.2038 19.3833Z" fill="#EAAE8E" fill-opacity="1.000000" fill-rule="nonzero"/>
		<path id="Vector" d="M16.6706 4.52612L16.5603 4.52612C16.3941 4.52612 16.2594 4.39148 16.2594 4.22522C16.2594 4.05896 16.3941 3.92432 16.5603 3.92432L16.6706 3.92432C16.8368 3.92432 16.9715 4.05896 16.9715 4.22522C16.9715 4.39148 16.8369 4.52612 16.6706 4.52612Z" fill="#DD8858" fill-opacity="1.000000" fill-rule="nonzero"/>
		<path id="Vector" d="M11.8072 6.46008L11.7685 6.57849C11.7685 6.57849 12.8651 7.72351 14.1758 8.23853C15.4864 8.7533 16.2381 8.86707 16.2381 8.86707L16.4039 8.75476L16.4313 8.45166C16.4452 8.29736 16.3359 8.15918 16.1826 8.13721C14.3391 7.87292 12.9717 6.68884 12.4932 6.21948C12.385 6.1134 12.2135 6.10852 12.0988 6.20764L11.8072 6.46008Z" fill="#FFC365" fill-opacity="1.000000" fill-rule="nonzero"/>
		<path id="Vector" d="M16.2593 8.77234C13.9973 8.46167 12.3849 7.04224 11.825 6.48047C11.8187 6.474 11.8128 6.46741 11.8072 6.46057L11.6273 6.61621C11.4996 6.72668 11.4918 6.92249 11.611 7.04211C12.171 7.60388 13.7834 9.02332 16.0453 9.33398C16.2101 9.35669 16.3606 9.23669 16.3755 9.07104L16.4039 8.75537C16.3594 8.77258 16.3101 8.7793 16.2593 8.77234Z" fill="#FFA90F" fill-opacity="1.000000" fill-rule="nonzero"/>
		<path id="Vector" d="M10.6471 7.46277L10.5503 7.46313L10.4512 7.56055C10.4512 7.56055 10.3178 8.2605 10.2617 9.41943L10.8044 9.41943L10.9396 9.33691C10.9504 8.71387 10.9835 8.18835 11.0098 7.85352C11.0265 7.64221 10.8591 7.46216 10.6471 7.46277Z" fill="#8479C2" fill-opacity="1.000000" fill-rule="nonzero"/>
		<path id="Vector" d="M10.3647 9.41907C10.3975 8.61157 10.4817 7.91919 10.5502 7.46265L10.1778 7.46387C9.99043 7.46448 9.83434 7.60742 9.81778 7.79395C9.7886 8.12219 9.74895 8.66968 9.7352 9.33655L9.82258 9.41907L10.3647 9.41907Z" fill="#6E60B8" fill-opacity="1.000000" fill-rule="nonzero"/>
		<path id="Vector" d="M11.3878 13.5419C11.1973 12.9285 11.0819 12.2324 11.0153 11.5358L10.8942 11.4255L10.3003 11.4344C10.4629 12.7831 10.8841 13.8879 10.8841 13.8879L11.0065 14.0125C11.0245 14.0116 11.0431 14.0107 11.0606 14.0099C11.2959 13.9972 11.4577 13.7668 11.3878 13.5419Z" fill="#8479C2" fill-opacity="1.000000" fill-rule="nonzero"/>
		<path id="Vector" d="M10.5406 14.0247C10.6999 14.0244 10.8602 14.019 11.0064 14.0118C10.6727 13.2045 10.4944 12.3086 10.4113 11.4321L9.88607 11.4399L9.80271 11.5352C9.86927 12.2856 9.98908 13.0554 10.1919 13.7637C10.2362 13.9188 10.3792 14.0249 10.5406 14.0247Z" fill="#6E60B8" fill-opacity="1.000000" fill-rule="nonzero"/>
		<path id="Vector" d="M15.8766 10.6401C13.686 10.9037 11.6598 10.1716 10.9362 9.8667L10.7788 10.0046L10.8186 10.5443C11.6846 10.8922 13.0106 11.2826 14.6024 11.2826C15.0448 11.2826 15.4269 11.2649 15.8919 11.1974C15.9416 11.1902 15.9856 11.1654 16.018 11.1295L16.0856 10.8843C16.1222 10.7518 16.013 10.6238 15.8766 10.6401Z" fill="#6E60B8" fill-opacity="1.000000" fill-rule="nonzero"/>
		<path id="Vector" d="M15.8919 11.1576C15.4269 11.225 15.0449 11.2427 14.6024 11.2427C13.0088 11.2427 11.6815 10.8513 10.8156 10.5032L10.8524 11.0012L10.9896 11.2362C11.786 11.5602 13.0222 11.9307 14.5101 11.9307C14.9176 11.9307 15.2694 11.9143 15.6977 11.8523C15.7739 11.8412 15.8367 11.786 15.8572 11.7117L16.0348 11.0687C16.002 11.116 15.9508 11.149 15.8919 11.1576Z" fill="#6353B2" fill-opacity="1.000000" fill-rule="nonzero"/>
		<path id="Vector" d="M10.2658 9.33679C10.2485 9.66638 10.2373 10.0344 10.2373 10.4363C10.2373 10.8107 10.2668 11.1824 10.3131 11.5356L11.0154 11.5356C10.9419 10.7666 10.9282 9.99695 10.9396 9.33679L10.2658 9.33679L10.2658 9.33679Z" fill="#DBEDFF" fill-opacity="1.000000" fill-rule="nonzero"/>
		<path id="Vector" d="M10.4216 11.5356C10.3423 10.767 10.3377 10.0098 10.3682 9.33679L9.73525 9.33679C9.72185 9.98694 9.73318 10.7507 9.80279 11.5356L10.4216 11.5356Z" fill="#B5DCFF" fill-opacity="1.000000" fill-rule="nonzero"/>
		<path id="Vector" d="M14.9647 2.21814C14.9647 2.21814 14.6705 2.2771 14.525 2.43799C14.3796 2.59875 14.0987 3.42627 14.0987 3.42627L14.9647 5.33862L15.2768 5.52271C15.5333 4.77478 15.571 3.45825 15.571 2.74939C15.571 2.44873 15.3228 2.20825 15.0223 2.21558C15.0028 2.21619 14.9838 2.21716 14.9647 2.21814Z" fill="#E39B74" fill-opacity="1.000000" fill-rule="nonzero"/>
		<path id="Vector" d="M14.373 3.90479C14.1295 3.29968 14.3494 2.60132 14.9023 2.25549C14.9227 2.24268 14.9436 2.23022 14.9647 2.2179C14.545 2.23901 14.1968 2.3761 13.9194 2.54968C13.3665 2.89563 13.1465 3.59399 13.39 4.19897C13.7231 5.02637 14.2896 6.17395 14.8387 6.07495C15.0299 6.04053 15.1717 5.82922 15.2768 5.52258C14.9213 5.15076 14.5952 4.45679 14.373 3.90479Z" fill="#DD8858" fill-opacity="1.000000" fill-rule="nonzero"/>
	</g>
</svg>
