<svg width="20.000000" height="20.000000" viewBox="0 0 20 20" fill="none" xmlns="http://www.w3.org/2000/svg" xmlns:xlink="http://www.w3.org/1999/xlink">
	<desc>
			Created with Pixso.
	</desc>
	<defs>
		<clipPath id="clip2_1476">
			<rect id="dollar (1) 1" width="20.000000" height="20.000000" fill="white" fill-opacity="0"/>
		</clipPath>
	</defs>
	<rect id="dollar (1) 1" width="20.000000" height="20.000000" fill="#FFFFFF" fill-opacity="0"/>
	<g clip-path="url(#clip2_1476)">
		<path id="Vector" d="M19.367 4.98291L19.367 15.0165L0.632664 15.0165L0.632664 4.98291L19.367 4.98291Z" fill="#58935E" fill-opacity="1.000000" fill-rule="nonzero"/>
		<path id="Vector" d="M16.9418 6.21094L3.01914 6.21094C3.01914 6.91406 2.46094 7.43677 1.79688 7.4563L1.79688 12.5437C2.46094 12.5632 3.01914 13.125 3.01914 13.8281L16.9418 13.8281C16.9418 13.125 17.4609 12.5632 18.125 12.5437L18.125 7.4563C17.4609 7.43677 16.9418 6.91406 16.9418 6.21094Z" fill="#7FD695" fill-opacity="1.000000" fill-rule="nonzero"/>
		<path id="Vector" d="M16.1327 9.20227C16.2905 9.20227 16.4447 9.24902 16.5759 9.33667C16.7071 9.42432 16.8093 9.54895 16.8697 9.6947C16.9301 9.84045 16.9459 10.0009 16.9151 10.1555C16.8843 10.3103 16.8083 10.4524 16.6968 10.564C16.5852 10.6755 16.4431 10.7515 16.2884 10.7822C16.1336 10.813 15.9732 10.7972 15.8275 10.7368C15.6817 10.6765 15.5572 10.5742 15.4695 10.4431C15.3819 10.3119 15.3351 10.1577 15.3351 9.99988C15.3351 9.89514 15.3557 9.79138 15.3958 9.6947C15.4358 9.5979 15.4946 9.50989 15.5687 9.43579C15.6427 9.36182 15.7307 9.30298 15.8275 9.26294C15.9242 9.2229 16.028 9.20227 16.1327 9.20227Z" fill="#61B257" fill-opacity="1.000000" fill-rule="nonzero"/>
		<path id="Vector" d="M9.99998 6.25122C10.7415 6.25122 11.4664 6.47107 12.0829 6.88306C12.6995 7.29504 13.18 7.88062 13.4638 8.56567C13.7476 9.25073 13.8218 10.0046 13.6772 10.7319C13.5325 11.4591 13.1754 12.1272 12.6511 12.6515C12.1267 13.1759 11.4587 13.533 10.7314 13.6776C10.0041 13.8223 9.2503 13.748 8.56522 13.4642C7.88014 13.1805 7.29459 12.7 6.88262 12.0834C6.47065 11.4668 6.25076 10.7419 6.25076 10.0005C6.25075 9.50806 6.34772 9.02051 6.53613 8.56567C6.72454 8.11084 7.00071 7.69751 7.34886 7.34937C7.69701 7.00122 8.11032 6.72498 8.56521 6.53662C9.02009 6.34814 9.50763 6.25122 9.99998 6.25122ZM12.723 10.0005C12.723 9.46191 12.5633 8.93542 12.2641 8.48755C11.9649 8.03979 11.5396 7.6908 11.0421 7.48462C10.5445 7.27856 9.99696 7.22461 9.46874 7.32971C8.94052 7.43481 8.45532 7.69409 8.0745 8.07495C7.69367 8.45581 7.43432 8.94104 7.32926 9.46924C7.22419 9.99744 7.27811 10.5449 7.48421 11.0425C7.69031 11.54 8.03933 11.9653 8.48714 12.2645C8.93494 12.5638 9.46142 12.7235 9.99998 12.7235C10.7222 12.7235 11.4148 12.4366 11.9255 11.9259C12.4361 11.4153 12.723 10.7227 12.723 10.0005Z" fill="#61B257" fill-opacity="1.000000" fill-rule="nonzero"/>
		<path id="Vector" d="M3.8673 9.20227C4.02508 9.20215 4.17934 9.2489 4.31057 9.33655C4.44179 9.42407 4.54409 9.54871 4.60452 9.69446C4.66496 9.84021 4.68081 10.0005 4.65007 10.1553C4.61934 10.3101 4.5434 10.4523 4.43186 10.5638C4.32032 10.6754 4.1782 10.7515 4.02345 10.7822C3.86871 10.813 3.70831 10.7972 3.56254 10.7369C3.41676 10.6765 3.29216 10.5743 3.20449 10.4431C3.11683 10.3119 3.07004 10.1577 3.07004 9.99988C3.07001 9.78845 3.15398 9.58557 3.30349 9.43604C3.45301 9.28638 3.65581 9.20239 3.8673 9.20227Z" fill="#61B257" fill-opacity="1.000000" fill-rule="nonzero"/>
		<path id="Vector" d="M2.96875 12.5437L2.96875 7.4563C3.63281 7.43677 4.19102 6.91406 4.19102 6.21094L3.01914 6.21094C3.01914 6.91406 2.46094 7.43677 1.79688 7.4563L1.79688 12.5437C2.46094 12.5632 3.01914 13.125 3.01914 13.8281L4.19102 13.8281C4.19102 13.125 3.63281 12.5632 2.96875 12.5437Z" fill="#6DB57C" fill-opacity="1.000000" fill-rule="nonzero"/>
		<path id="Vector" d="M10.0002 9.73804C9.90925 9.73804 9.82039 9.71106 9.74481 9.66064C9.66923 9.61011 9.61032 9.53833 9.57553 9.45435C9.54075 9.37036 9.53165 9.27795 9.54938 9.18884C9.56711 9.09961 9.61089 9.0177 9.67516 8.95349C9.73944 8.88916 9.82134 8.84546 9.91049 8.82764C9.99965 8.80994 10.0921 8.81909 10.176 8.85388C10.26 8.88867 10.3318 8.94751 10.3823 9.02307C10.4328 9.09875 10.4598 9.18762 10.4598 9.27844C10.4598 9.34058 10.4845 9.40027 10.5284 9.44421C10.5724 9.48816 10.632 9.51282 10.6941 9.51282C10.7563 9.51282 10.8159 9.48816 10.8599 9.44421C10.9038 9.40027 10.9285 9.34058 10.9285 9.27844C10.9283 9.07312 10.8601 8.87354 10.7345 8.71106C10.609 8.54858 10.4332 8.43213 10.2345 8.38L10.2345 8.16675C10.2345 8.10461 10.2098 8.04492 10.1659 8.00098C10.1219 7.95703 10.0623 7.93237 10.0002 7.93237C9.938 7.93237 9.87838 7.95703 9.83443 8.00098C9.79047 8.04492 9.76578 8.10461 9.76578 8.16675L9.76578 8.38C9.54731 8.43701 9.35709 8.57166 9.23072 8.75867C9.10435 8.9458 9.05049 9.17261 9.07922 9.39648C9.10795 9.62048 9.21731 9.82617 9.38682 9.97534C9.55633 10.1245 9.77438 10.2068 10.0002 10.2067C10.0911 10.2067 10.1799 10.2336 10.2555 10.2842C10.3311 10.3347 10.39 10.4065 10.4248 10.4905C10.4596 10.5745 10.4687 10.6669 10.4509 10.756C10.4332 10.8451 10.3894 10.927 10.3251 10.9913C10.2609 11.0555 10.179 11.0994 10.0898 11.1171C10.0007 11.1349 9.90825 11.1257 9.82427 11.0909C9.74029 11.0562 9.66851 10.9972 9.61801 10.9216C9.5675 10.8461 9.54055 10.7572 9.54055 10.6663C9.54055 10.6041 9.51586 10.5446 9.4719 10.5006C9.42795 10.4567 9.36833 10.4319 9.30617 10.4319C9.24401 10.4319 9.1844 10.4567 9.14045 10.5006C9.09649 10.5446 9.0718 10.6041 9.0718 10.6663C9.07203 10.8717 9.14024 11.0712 9.26578 11.2338C9.39132 11.3962 9.56714 11.5127 9.76578 11.5647L9.76578 11.833C9.76578 11.8951 9.79047 11.9547 9.83443 11.9987C9.87838 12.0426 9.938 12.0674 10.0002 12.0674C10.0623 12.0674 10.1219 12.0426 10.1659 11.9987C10.2098 11.9547 10.2345 11.8951 10.2345 11.833L10.2345 11.5647C10.453 11.5077 10.6432 11.373 10.7696 11.1859C10.896 10.9989 10.9498 10.7721 10.9211 10.5482C10.8924 10.3242 10.783 10.1184 10.6135 9.96936C10.444 9.82019 10.2259 9.73792 10.0002 9.73792L10.0002 9.73804Z" fill="#EADF53" fill-opacity="1.000000" fill-rule="nonzero"/>
	</g>
</svg>
