<svg width="24.000000" height="24.000000" viewBox="0 0 24 24" fill="none" xmlns="http://www.w3.org/2000/svg" xmlns:xlink="http://www.w3.org/1999/xlink">
	<desc>
			Created with Pixso.
	</desc>
	<defs/>
	<path id="Vector" d="M24 12C24 18.6274 18.6274 24 12 24C5.37256 24 0 18.6274 0 12C0 5.37256 5.37256 0 12 0C18.6274 0 24 5.37256 24 12Z" fill="#F6F7FA" fill-opacity="1.000000" fill-rule="evenodd"/>
	<path id="Vector" d="M15.0168 12.4697L12.8755 12.4697L12.8755 20.3142L9.63141 20.3142L9.63141 12.4697L8.08844 12.4697L8.08844 9.71289L9.63141 9.71289L9.63141 7.92871C9.63141 6.65308 10.2374 4.65527 12.9044 4.65527L15.3075 4.66528L15.3075 7.34131L13.5639 7.34131C13.278 7.34131 12.8758 7.48413 12.8758 8.09277L12.8758 9.71533L15.3002 9.71533L15.0168 12.4697Z" fill="#3B5998" fill-opacity="1.000000" fill-rule="nonzero"/>
</svg>
