<svg width="14.633316" height="13.299805" viewBox="0 0 14.6333 13.2998" fill="none" xmlns="http://www.w3.org/2000/svg" xmlns:xlink="http://www.w3.org/1999/xlink">
	<desc>
			Created with Pixso.
	</desc>
	<defs/>
	<path id="Stroke 1" d="M5.92513 10.7273L0.67453 10.7273" stroke="#A1A1A1" stroke-opacity="1.000000" stroke-width="1.300000" stroke-linejoin="round" stroke-linecap="round"/>
	<path id="Stroke 3" d="M8.26706 2.65015L13.5177 2.65015" stroke="#A1A1A1" stroke-opacity="1.000000" stroke-width="1.300000" stroke-linejoin="round" stroke-linecap="round"/>
	<path id="Stroke 5" d="M2.61928 0.649902C1.5318 0.649902 0.649994 1.52539 0.649994 2.60522C0.649994 3.68481 1.5318 4.5603 2.61928 4.5603C3.70677 4.5603 4.58856 3.68481 4.58856 2.60522C4.58856 1.52539 3.70677 0.649902 2.61928 0.649902Z" stroke="#A1A1A1" stroke-opacity="1.000000" stroke-width="1.300000" stroke-linejoin="round"/>
	<path id="Stroke 7" d="M12.0147 8.7395C10.9265 8.7395 10.0447 9.61499 10.0447 10.6948C10.0447 11.7744 10.9265 12.6499 12.0147 12.6499C13.1022 12.6499 13.9833 11.7744 13.9833 10.6948C13.9833 9.61499 13.1022 8.7395 12.0147 8.7395Z" stroke="#A1A1A1" stroke-opacity="1.000000" stroke-width="1.300000" stroke-linejoin="round"/>
</svg>
