<svg width="135.143066" height="106.224487" viewBox="0 0 135.143 106.224" fill="none" xmlns="http://www.w3.org/2000/svg" xmlns:xlink="http://www.w3.org/1999/xlink">
	<desc>
			Created with Pixso.
	</desc>
	<defs>
		<linearGradient id="paint_linear_1_189_0" x1="104.575272" y1="88.625656" x2="63.988178" y2="117.127457" gradientUnits="userSpaceOnUse">
			<stop stop-color="#F4F5F6"/>
			<stop offset="1.000000" stop-color="#F4F5F6" stop-opacity="0.000000"/>
		</linearGradient>
		<linearGradient id="paint_linear_1_190_0" x1="38.463524" y1="83.022842" x2="81.902130" y2="109.411255" gradientUnits="userSpaceOnUse">
			<stop stop-color="#F4F5F6"/>
			<stop offset="1.000000" stop-color="#F4F5F6" stop-opacity="0.000000"/>
		</linearGradient>
	</defs>
	<g opacity="0.200000">
		<path id="Vector" d="M84.1425 42.2C84.1425 65.5062 65.3065 84.3998 42.0713 84.3998C18.8359 84.3998 0 65.5062 0 42.2C0 18.8936 18.8359 0 42.0713 0C65.3065 0 84.1425 18.8936 84.1425 42.2Z" fill="#F4F8FF" fill-opacity="1.000000" fill-rule="evenodd"/>
	</g>
	<path id="Vector" d="M43.2555 41.3314L38.6521 24.0988C37.5865 20.11 39.9464 16.0101 43.9229 14.9414C47.8993 13.8728 51.9865 16.2396 53.052 20.2284L57.6554 37.4612" stroke="#E7F0FD" stroke-opacity="1.000000" stroke-width="10.000000"/>
	<path id="Vector" d="M68.1201 52.9391C63.229 61.4368 52.3964 64.3483 43.9246 59.4421C35.4529 54.536 32.5503 43.6702 37.4414 35.1725C42.3325 26.6749 53.1653 23.7634 61.637 28.6696C70.1086 33.5757 73.0114 44.4415 68.1201 52.9391Z" fill="#E6F0FD" fill-opacity="1.000000" fill-rule="evenodd"/>
	<path id="Vector" d="M65.7842 51.0734C61.8304 57.9423 53.074 60.2958 46.226 56.33C39.3781 52.3641 37.0317 43.5809 40.9854 36.7119C44.9391 29.843 53.6956 27.4895 60.5436 31.4553C67.3915 35.4211 69.7378 44.2043 65.7842 51.0734Z" fill="#D9E4FC" fill-opacity="1.000000" fill-rule="evenodd"/>
	<path id="Vector" d="M65.3416 51.845C61.3878 58.7139 52.6313 61.0674 45.7833 57.1016C38.9353 53.1357 36.5891 44.3525 40.5427 37.4835C44.4965 30.6146 53.2529 28.2611 60.101 32.2269C66.949 36.1927 69.2952 44.976 65.3416 51.845Z" fill="#FFFFFF" fill-opacity="1.000000" fill-rule="evenodd"/>
	<path id="Vector" d="M59.1674 48.949C57.0886 52.5605 52.4846 53.7979 48.8842 51.7128C45.2837 49.6277 44.05 45.0096 46.1288 41.3982C48.2075 37.7867 52.8115 36.5493 56.412 38.6344C60.0125 40.7195 61.2461 45.3375 59.1674 48.949Z" fill="#AACCFB" fill-opacity="1.000000" fill-rule="evenodd"/>
	<path id="Vector" d="M59.462 48.4388C57.3833 52.0504 52.7793 53.2878 49.1788 51.2026C45.5784 49.1176 44.3447 44.4996 46.4235 40.8881C48.5022 37.2766 53.1062 36.0392 56.7067 38.1243C60.3071 40.2094 61.5408 44.8274 59.462 48.4388Z" fill="#D6E6FE" fill-opacity="1.000000" fill-rule="evenodd"/>
	<path id="Vector" d="M55.8834 46.3663C54.9459 47.995 52.8696 48.553 51.2458 47.6127C49.6221 46.6724 49.0658 44.5897 50.0033 42.9611C50.9407 41.3323 53.017 40.7743 54.6407 41.7146C56.2645 42.6549 56.8208 44.7375 55.8834 46.3663Z" fill="#B0CDFD" fill-opacity="1.000000" fill-rule="evenodd"/>
	<path id="Vector" d="M68.9346 59.224C68.6085 59.7905 67.8864 59.9846 67.3215 59.6575C66.7567 59.3304 66.5632 58.6061 66.8893 58.0396C67.2155 57.473 67.9376 57.2789 68.5023 57.606C69.0671 57.9331 69.2607 58.6575 68.9346 59.224Z" fill="#D0E2FB" fill-opacity="1.000000" fill-rule="evenodd"/>
	<path id="Vector" d="M56.2224 43.9966L49.7163 45.5283" stroke="#1071ED" stroke-opacity="1.000000" stroke-width="2.000000"/>
	<path id="Vector" d="M57.5038 35.8495C57.3627 35.7678 57.3142 35.5867 57.3959 35.4451L58.5028 33.5219C58.5842 33.3801 58.7648 33.3315 58.906 33.4135C59.0472 33.4952 59.0956 33.6763 59.0142 33.818L57.9071 35.7412C57.8256 35.8828 57.645 35.9314 57.5038 35.8495Z" fill="#D0E2FB" fill-opacity="1.000000" fill-rule="evenodd"/>
	<path id="Vector" d="M46.36 55.2135C46.2189 55.1317 46.1704 54.9507 46.2521 54.809L47.3591 52.8856C47.4406 52.744 47.6212 52.6956 47.7623 52.7772C47.9036 52.859 47.9519 53.0402 47.8704 53.1818L46.7633 55.1051C46.6818 55.2467 46.5012 55.2952 46.36 55.2135Z" fill="#D0E2FB" fill-opacity="1.000000" fill-rule="evenodd"/>
	<path id="Vector" d="M61.0692 49.1969C61.1506 49.0552 61.3313 49.0066 61.4723 49.0885L63.3898 50.1989C63.531 50.2806 63.5795 50.4618 63.4979 50.6034C63.4164 50.745 63.2358 50.7936 63.0946 50.7118L61.1771 49.6013C61.036 49.5197 60.9875 49.3384 61.0692 49.1969Z" fill="#D0E2FB" fill-opacity="1.000000" fill-rule="evenodd"/>
	<path id="Vector" d="M41.7679 38.0208C41.8492 37.8792 42.0298 37.8307 42.171 37.9124L44.0885 39.0228C44.2297 39.1046 44.278 39.2856 44.1965 39.4274C44.115 39.5688 43.9344 39.6174 43.7932 39.5356L41.8759 38.4252C41.7347 38.3435 41.6863 38.1625 41.7679 38.0208Z" fill="#D0E2FB" fill-opacity="1.000000" fill-rule="evenodd"/>
	<path id="Vector" d="M62.0428 41.7826C62.0007 41.6246 62.0941 41.4623 62.2515 41.4198L64.3901 40.8452C64.5476 40.8027 64.7095 40.8965 64.7517 41.0544C64.7939 41.2124 64.7004 41.3748 64.543 41.4171L62.4043 41.9919C62.2468 42.0343 62.085 41.9406 62.0428 41.7826Z" fill="#D0E2FB" fill-opacity="1.000000" fill-rule="evenodd"/>
	<path id="Vector" d="M40.5145 47.5699C40.4724 47.4121 40.5657 47.2495 40.7231 47.2073L42.8618 46.6324C43.0193 46.5902 43.1812 46.684 43.2233 46.8419C43.2656 46.9999 43.1721 47.1622 43.0146 47.2046L40.876 47.7794C40.7185 47.8217 40.5566 47.7279 40.5145 47.5699Z" fill="#D0E2FB" fill-opacity="1.000000" fill-rule="evenodd"/>
	<path id="Vector" d="M55.1545 53.7509C55.312 53.7086 55.4739 53.8024 55.5162 53.9603L56.0891 56.1055C56.1315 56.2634 56.038 56.4258 55.8805 56.4681C55.7229 56.5104 55.561 56.4166 55.5189 56.2588L54.9458 54.1136C54.9036 53.9557 54.9971 53.7933 55.1545 53.7509Z" fill="#D0E2FB" fill-opacity="1.000000" fill-rule="evenodd"/>
	<path id="Vector" d="M49.3855 32.1577C49.5428 32.1155 49.7048 32.2092 49.7469 32.3672L50.3201 34.5123C50.3622 34.6704 50.2687 34.8328 50.1112 34.875C49.9537 34.9172 49.7919 34.8235 49.7496 34.6656L49.1766 32.5205C49.1345 32.3625 49.2279 32.2002 49.3855 32.1577Z" fill="#D0E2FB" fill-opacity="1.000000" fill-rule="evenodd"/>
	<path id="Vector" d="M116.77 12.2134L131.669 28.5576L86.1511 70.3076L71.2512 53.9634L116.77 12.2134Z" fill="#D1E3FC" fill-opacity="1.000000" fill-rule="evenodd"/>
	<path id="Vector" d="M117.92 13.7159L119.371 15.3077L74.0906 56.8397L72.6394 55.2479L117.92 13.7159Z" fill="#E6F0FD" fill-opacity="1.000000" fill-rule="evenodd"/>
	<path id="Vector" d="M117.92 21.3424L121.463 25.2285L89.6925 54.3685L86.1499 50.4824L117.92 21.3424Z" fill="#E6F0FD" fill-opacity="1.000000" fill-rule="evenodd"/>
	<path id="Vector" d="M123.786 27.5605L127.328 31.4467L95.5581 60.5867L92.0154 56.7006L123.786 27.5605Z" fill="#E6F0FD" fill-opacity="1.000000" fill-rule="evenodd"/>
	<path id="Vector" d="M120.798 18.6759L130.001 28.7708L120.703 37.2993L111.5 27.2045L120.798 18.6759Z" fill="#FFFFFF" fill-opacity="1.000000" fill-rule="evenodd"/>
	<path id="Vector" d="M121.234 25.8408L116.451 27.6139C116.272 27.6801 116.336 27.9474 116.525 27.9257L121.271 27.3759C121.283 27.3744 121.296 27.3744 121.308 27.3759L126.212 27.9259C126.401 27.9473 126.464 27.6782 126.284 27.6136L121.344 25.8403C121.309 25.8274 121.27 25.8278 121.234 25.8408Z" fill="#C1D7F9" fill-opacity="1.000000" fill-rule="nonzero"/>
	<path id="Vector" d="M121.789 27.3539C121.789 30.7852 121.537 33.5669 121.226 33.5669C120.915 33.5669 120.663 30.7852 120.663 27.3539C120.663 23.9225 120.915 21.1409 121.226 21.1409C121.537 21.1409 121.789 23.9225 121.789 27.3539Z" fill="#E6F0FD" fill-opacity="1.000000" fill-rule="evenodd"/>
	<path id="Vector" d="M121.038 31.8016L118.666 32.4525C118.477 32.5045 118.527 32.7858 118.723 32.7689L121.066 32.5681C121.075 32.5673 121.084 32.5673 121.093 32.5679L123.516 32.7693C123.712 32.7856 123.761 32.5029 123.571 32.4525L121.122 31.8014C121.094 31.7941 121.066 31.7943 121.038 31.8016Z" fill="#ABCAFA" fill-opacity="1.000000" fill-rule="nonzero"/>
	<path id="Vector" d="M86.9058 37.4397L81.0592 37.4397C79.4222 42.0516 79.1105 45.077 79.1592 46.0133C81.0592 48.4276 85.1226 52.192 86.1749 47.9349C87.2272 43.6777 87.1006 39.1643 86.9058 37.4397Z" fill="#FCC1B6" fill-opacity="1.000000" fill-rule="nonzero"/>
	<path id="Vector" d="M101.528 46.3158L99.5881 49.204L104.182 50.9957L104.736 49.4933L104.736 48.4414L101.528 46.3158Z" fill="#FBD6CD" fill-opacity="1.000000" fill-rule="nonzero"/>
	<path id="Vector" d="M78.1898 41.4731C78.1898 43.2556 76.7131 44.7007 74.8916 44.7007C73.0702 44.7007 71.5935 43.2556 71.5935 41.4731C71.5935 39.6907 73.0702 38.2456 74.8916 38.2456C76.7131 38.2456 78.1898 39.6907 78.1898 41.4731Z" fill="#4E1803" fill-opacity="1.000000" fill-rule="evenodd"/>
	<path id="Vector" d="M83.0494 45.9034C91.5665 49.1154 92.2172 60.4261 91.4777 65.6801L53.9197 65.1106C53.7717 62.7316 54.2155 54.9739 58.7992 50.5129C62.4664 46.9443 69.002 46.1512 71.8115 46.2008L71.8115 44.8625L76.9868 44.8625L76.9868 45.4574C79.5894 45.1005 82.1129 45.606 83.0494 45.9034Z" fill="#FFE19D" fill-opacity="1.000000" fill-rule="nonzero"/>
	<path id="Vector" d="M84.5935 36.7252L84.5935 37.4542L83.3982 37.6001C83.6969 36.5793 83.3982 36.7252 82.8005 34.8297C82.2029 32.9342 84.2947 31.7676 84.7428 32.2051C85.191 32.6426 84.7428 33.6632 84.7428 34.2466C84.7428 34.8297 85.0417 35.1213 85.6393 34.2466C86.1174 33.5466 86.3365 33.8577 86.3865 34.1007C86.506 35.3838 85.241 36.3849 84.5935 36.7252Z" fill="#B2461D" fill-opacity="1.000000" fill-rule="nonzero"/>
	<path id="Vector" d="M28.835 41.7019C30.8558 38.5156 35.1254 40.5709 37.0076 41.9968C42.5056 37.1292 45.7745 41.9968 45.9231 42.7345C46.0718 43.472 46.9634 44.9471 44.14 48.34C41.3168 51.7325 35.373 50.5525 32.6984 50.1099C30.0237 49.6674 26.3088 45.6846 28.835 41.7019Z" fill="#F95431" fill-opacity="1.000000" fill-rule="nonzero"/>
	<path id="Vector" d="M42.3123 45.1859C42.3123 46.701 41.4119 47.9293 40.3013 47.9293C39.1906 47.9293 38.2902 46.701 38.2902 45.1859C38.2902 43.6708 39.1906 42.4425 40.3013 42.4425C41.4119 42.4425 42.3123 43.6708 42.3123 45.1859Z" fill="#FF9367" fill-opacity="1.000000" fill-rule="evenodd"/>
	<path id="Vector" d="M39.095 50.9927L39.392 46.7257L41.6196 45.99L42.9562 49.8156L42.2137 50.9927L39.095 50.9927Z" fill="#FF9367" fill-opacity="1.000000" fill-rule="nonzero"/>
	<path id="Vector" d="M90.5071 49.7362L88.1497 51.6522L86.2344 61.2323L104.651 84.0769C108.875 78.5254 117.145 65.5654 116.438 58.1371C115.731 50.709 108.286 49.4415 104.651 49.7362L104.062 50.7678L99.7892 49.1467L100.231 48.2623L99.7892 47.8202C95.0745 45.9337 91.6367 48.3115 90.5071 49.7362Z" fill="#FCC1B6" fill-opacity="1.000000" fill-rule="nonzero"/>
	<path id="Vector" d="M24.6318 57.0059C28.8899 49.891 36.3608 49.1993 39.5642 49.7429C41.693 51.0474 42.2253 49.5946 42.2253 48.7052C51.3325 41.472 58.7347 46.0868 61.2972 49.2981C52.8998 53.6857 53.8557 65.2568 55.3835 70.4941L42.2253 70.4941L39.5642 66.4919C39.5642 79.6838 30.5457 81.6108 27.5887 79.0909C24.6318 76.5713 19.3094 65.899 24.6318 57.0059Z" fill="#BBDDC7" fill-opacity="1.000000" fill-rule="nonzero"/>
	<path id="Vector" d="M39.3071 62.775L40.3821 61.8727C39.6143 61.4216 39.4607 60.2186 39.4607 59.0157C39.4607 58.0532 37.8226 56.71 37.0035 56.1586C37.0547 57.111 37.2185 59.2562 37.4644 60.2186C37.71 61.181 38.7952 62.324 39.3071 62.775Z" fill="#FF9267" fill-opacity="1.000000" fill-rule="nonzero"/>
	<path id="Vector" d="M26.8657 75.0679L28.2961 78.6022C28.4775 79.0505 28.2277 79.5571 27.7622 79.6842L13.6051 83.5522C13.1919 83.6652 12.7632 83.4337 12.6294 83.0258L11.522 79.645C11.3796 79.2111 11.6248 78.7454 12.0621 78.6182L25.8966 74.5963C26.2924 74.4813 26.7108 74.6848 26.8657 75.0679Z" fill="#E4F0FD" fill-opacity="1.000000" fill-rule="nonzero"/>
	<path id="Vector" d="M17.8582 80.2023C17.8582 80.9153 17.246 81.4933 16.4907 81.4933C15.7355 81.4933 15.1232 80.9153 15.1232 80.2023C15.1232 79.4893 15.7355 78.9113 16.4907 78.9113C17.246 78.9113 17.8582 79.4893 17.8582 80.2023Z" fill="#ABCAFA" fill-opacity="1.000000" fill-rule="evenodd"/>
	<path id="Vector" d="M26.5455 77.5415C26.5455 78.2991 25.9333 78.9132 25.1781 78.9132C24.4229 78.9132 23.8105 78.2991 23.8105 77.5415C23.8105 76.7839 24.4229 76.1698 25.1781 76.1698C25.9333 76.1698 26.5455 76.7839 26.5455 77.5415Z" fill="#ABCAFA" fill-opacity="1.000000" fill-rule="evenodd"/>
	<path id="Vector" d="M17.3754 79.8007C17.3754 80.5582 16.7632 81.1724 16.0079 81.1724C15.2527 81.1724 14.6404 80.5582 14.6404 79.8007C14.6404 79.0431 15.2527 78.429 16.0079 78.429C16.7632 78.429 17.3754 79.0431 17.3754 79.8007Z" fill="#FEFEFE" fill-opacity="1.000000" fill-rule="evenodd"/>
	<path id="Vector" d="M25.9025 77.1372C25.9025 77.8502 25.2903 78.4282 24.535 78.4282C23.7798 78.4282 23.1675 77.8502 23.1675 77.1372C23.1675 76.4242 23.7798 75.8462 24.535 75.8462C25.2903 75.8462 25.9025 76.4242 25.9025 77.1372Z" fill="#FEFEFE" fill-opacity="1.000000" fill-rule="evenodd"/>
	<path id="Vector" d="M36.9344 63.4202L35.8447 63.4202C35.9808 62.4968 35.5721 61.5736 34.891 60.6504C34.3461 59.9119 34.6639 57.7782 34.891 56.8037C35.2998 57.4705 36.2261 59.0502 36.662 60.0349C37.098 61.0198 37.0253 62.702 36.9344 63.4202Z" fill="#FF9267" fill-opacity="1.000000" fill-rule="nonzero"/>
	<path id="Vector" d="M30.2896 70.0936C30.1436 70.296 29.7988 70.1709 29.7911 69.9214C29.7745 69.3879 29.6831 68.8175 29.4316 68.385C29.3915 68.3156 29.3 68.3005 29.2352 68.3477C29.1715 68.394 29.1572 68.4828 29.1959 68.5515C29.4022 68.9178 29.4893 69.42 29.505 69.9307C29.5204 70.4227 29.4689 70.903 29.4094 71.2363C29.3951 71.3164 29.4355 71.3969 29.5093 71.4307C29.5844 71.4648 29.673 71.4413 29.7213 71.3743L31.1289 69.4213C31.1749 69.3574 31.1613 69.2682 31.0981 69.2212C31.0338 69.1731 30.9427 69.1871 30.8958 69.2523L30.2896 70.0936Z" fill="#9EC7AE" fill-opacity="1.000000" fill-rule="evenodd"/>
	<path id="Vector" d="M48.5112 64.3768C48.4291 64.3844 48.3562 64.3223 48.3489 64.24C47.6987 56.8817 50.947 52.3729 52.797 50.922C52.8606 50.8721 52.9504 50.8866 52.9995 50.951C53.0496 51.017 53.0377 51.11 52.9727 51.1613C51.203 52.5565 48.0073 56.9636 48.6469 64.2114C48.6541 64.2942 48.5938 64.3693 48.5112 64.3768Z" fill="#9EC7AE" fill-opacity="1.000000" fill-rule="evenodd"/>
	<path id="Vector" d="M46.0743 64.5979C46.0216 64.6613 45.928 64.671 45.8634 64.6194L41.9509 61.4926C41.8844 61.4392 41.8745 61.3417 41.929 61.2761C41.9818 61.2126 42.0754 61.203 42.1399 61.2546L46.0525 64.3815C46.1189 64.4347 46.1289 64.5323 46.0743 64.5979Z" fill="#9EC7AE" fill-opacity="1.000000" fill-rule="evenodd"/>
	<path id="Vector" d="M14.2489 93.3259L33.3342 87.677C33.7383 87.5574 34.166 87.7708 34.3146 88.1663L38.1465 98.3647C38.3113 98.8033 38.0699 99.29 37.6217 99.4231L17.2594 105.46C16.8182 105.591 16.3575 105.324 16.2495 104.876L13.6948 94.2897C13.5938 93.8716 13.8376 93.4476 14.2489 93.3259Z" fill="#F4F8FF" fill-opacity="1.000000" fill-rule="nonzero"/>
	<path id="Vector" d="M33.6926 89.0286L14.4751 94.6802C14.0719 94.7988 13.6456 94.5862 13.4966 94.192L9.63977 83.9929C9.47351 83.5533 9.7157 83.0651 10.1652 82.9325L30.6681 76.8931C31.1086 76.7633 31.5677 77.0289 31.6764 77.4763L34.2478 88.0634C34.3495 88.4823 34.1049 88.9073 33.6926 89.0286Z" fill="#D1E3FC" fill-opacity="1.000000" fill-rule="nonzero"/>
	<path id="Vector" d="M14.4795 67.7474L16.0975 65.1932L18.7452 67.1464L19.6278 69.5504L17.4214 69.5504L14.4795 67.7474Z" fill="#F95431" fill-opacity="1.000000" fill-rule="nonzero"/>
	<path id="Vector" d="M42.1522 65.0345L103.127 65.0345C103.927 65.0345 104.575 65.6848 104.575 66.4869L104.575 104.572C104.575 105.374 103.927 106.024 103.127 106.024L42.1522 106.024C41.3525 106.024 40.7042 105.374 40.7042 104.572L40.7042 66.4869C40.7042 65.6848 41.3525 65.0345 42.1522 65.0345Z" fill="url(#paint_linear_1_189_0)" fill-opacity="1.000000" fill-rule="evenodd"/>
	<path id="Vector" d="M97.9906 67.5776C98.9934 66.6934 98.3698 65.0345 97.0344 65.0345L41.8296 65.0345C41.0298 65.0345 40.3816 65.6847 40.3816 66.4869L40.3816 104.572C40.3816 105.374 41.0298 106.024 41.8296 106.024L53.8522 106.024C54.204 106.024 54.5439 105.896 54.8082 105.662L97.9906 67.5776Z" fill="url(#paint_linear_1_190_0)" fill-opacity="1.000000" fill-rule="nonzero"/>
	<path id="Vector" d="M40.6233 66.3667C41.4673 65.0532 43.2252 64.6555 44.5498 65.4781L73.9192 83.7211C75.2437 84.5437 75.6332 86.2754 74.7891 87.5889C73.9451 88.9022 72.1871 89.3 70.8625 88.4773L41.4932 70.2345C40.1687 69.4119 39.7792 67.6802 40.6233 66.3667Z" fill="#F85232" fill-opacity="1.000000" fill-rule="evenodd"/>
	<path id="Vector" d="M104.58 66.3861C105.424 67.6995 105.034 69.4312 103.709 70.2538L74.3391 88.4954C73.0146 89.318 71.2567 88.92 70.4127 87.6066C69.5687 86.2931 69.9583 84.5615 71.2828 83.7388L100.653 65.4973C101.978 64.6747 103.736 65.0726 104.58 66.3861Z" fill="#F85232" fill-opacity="1.000000" fill-rule="evenodd"/>
	<path id="Vector" d="M42.6344 65.0345C44.2338 65.0345 45.5304 66.3351 45.5304 67.9393L45.5304 103.119C45.5304 104.724 44.2338 106.024 42.6344 106.024C41.035 106.024 39.7385 104.724 39.7385 103.119L39.7385 67.9393C39.7385 66.3351 41.035 65.0345 42.6344 65.0345Z" fill="#F85232" fill-opacity="1.000000" fill-rule="evenodd"/>
	<path id="Vector" d="M102.081 65.0345C103.636 65.0345 104.897 66.299 104.897 67.8586L104.897 103.2C104.897 104.76 103.636 106.024 102.081 106.024C100.526 106.024 99.2656 104.76 99.2656 103.2L99.2656 67.8586C99.2656 66.299 100.526 65.0345 102.081 65.0345Z" fill="#F85232" fill-opacity="1.000000" fill-rule="evenodd"/>
	<path id="Vector" d="M65.5477 63.2085C63.5681 62.7297 62.1031 63.9066 61.6179 64.5549L63.6555 64.5549C64.3832 64.5549 64.5288 66.4996 65.4021 67.3972C66.2754 68.2948 66.421 66.2004 66.421 65.1533C66.421 64.1061 67.1487 64.5549 68.1674 64.2557C69.1863 63.9565 68.022 63.8069 65.5477 63.2085Z" fill="#FF9267" fill-opacity="1.000000" fill-rule="nonzero"/>
	<path id="Vector" d="M73.297 43.1013C71.8433 42.0361 71.9847 40.6852 72.2369 40.1427C73.3273 40.3795 75.0132 39.9456 75.72 39.699L77.3856 40.8823L77.3856 41.4741C77.3856 42.1842 76.5779 42.9535 76.1741 43.2493L76.0227 45.0244L73.1456 45.0244L73.297 43.1013Z" fill="#FF9466" fill-opacity="1.000000" fill-rule="nonzero"/>
	<path id="Vector" d="M76.9028 37.5198C76.9028 38.0991 76.4706 38.5687 75.9375 38.5687C75.4043 38.5687 74.9722 38.0991 74.9722 37.5198C74.9722 36.9404 75.4043 36.4708 75.9375 36.4708C76.4706 36.4708 76.9028 36.9404 76.9028 37.5198Z" fill="#4D1602" fill-opacity="1.000000" fill-rule="evenodd"/>
	<path id="Vector" d="M74.6067 41.3059C74.5084 41.1841 74.4292 41.0452 74.3745 40.928C74.3459 40.8669 74.3694 40.7955 74.426 40.759C74.501 40.7106 74.6018 40.7434 74.6438 40.8224C74.6842 40.8984 74.7354 40.981 74.7946 41.0542C74.9008 41.1859 75.0155 41.2673 75.1274 41.2673C75.1384 41.2673 75.1495 41.2692 75.16 41.2725L75.1603 41.2727C75.2233 41.2928 75.3293 41.2935 75.4279 41.2236C75.5043 41.1694 75.5879 41.0642 75.6418 40.8572C75.6622 40.7788 75.7396 40.7267 75.8177 40.7469C75.8857 40.7643 75.9301 40.8312 75.915 40.8999C75.8452 41.2191 75.7134 41.4196 75.5587 41.5294C75.458 41.601 75.3538 41.6298 75.2609 41.6333C75.1603 41.6371 75.0575 41.6212 74.963 41.5865C74.8217 41.5345 74.7008 41.4225 74.6067 41.3059Z" fill="#F85232" fill-opacity="1.000000" fill-rule="evenodd"/>
	<path id="Vector" d="M60.4927 63.5811C62.2428 62.8842 65.6528 59.9075 65.2928 53.5757C64.6428 56.0148 63.5828 61.2216 64.5427 62.5356" stroke="#FDD887" stroke-opacity="1.000000" stroke-width="1.000000"/>
	<path id="Vector" d="M82.8268 53.2542C83.1958 54.8749 83.5895 59.1772 82.2117 63.4208" stroke="#FDD887" stroke-opacity="1.000000" stroke-width="1.000000"/>
	<path id="Vector" d="M91.5421 60.017L94.7598 55.0289C94.321 56.7894 93.151 60.8678 91.9808 63.0978" stroke="#F3AEA1" stroke-opacity="1.000000" stroke-width="1.000000"/>
	<path id="Vector" d="M105.058 67.7781C105.772 66.3622 107.115 62.4756 106.772 58.257" stroke="#F3AEA1" stroke-opacity="1.000000" stroke-width="1.000000"/>
	<path id="Vector" d="M104.574 45.99L104.574 48.4106L102 46.702L104.574 45.99Z" fill="#561300" fill-opacity="1.000000" fill-rule="nonzero"/>
	<path id="Vector" d="M100.874 41.4736L105.057 41.4736L105.057 45.9922C105.057 46.6161 104.552 47.1218 103.93 47.1218L102 47.1218C101.378 47.1218 100.874 46.6161 100.874 45.9922L100.874 41.4736Z" fill="#B2461D" fill-opacity="1.000000" fill-rule="nonzero"/>
	<path id="Vector" d="M102.176 40.3441L99.4268 40.3441L100.772 41.9501L104.663 41.9501L104.663 43.4103L105.102 43.4103L105.102 42.5342L105.54 42.5342L105.54 41.5122L104.809 40.3441L103.054 40.3441C103.005 40.4901 102.849 40.7821 102.615 40.7821C102.381 40.7821 102.225 40.4901 102.176 40.3441Z" fill="#4C1802" fill-opacity="1.000000" fill-rule="nonzero"/>
	<path id="Vector" d="M105.058 42.4425L105.54 42.4425L105.54 43.2494L105.058 43.2494L105.058 42.4425Z" fill="#4C1802" fill-opacity="1.000000" fill-rule="evenodd"/>
	<path id="Vector" d="M76.2598 27.0304L76.2598 24.6904L78.4874 25.568L80.121 27.7616L77.5964 29.3704L76.2598 27.0304Z" fill="#1071ED" fill-opacity="1.000000" fill-rule="nonzero"/>
	<path id="Vector" d="M38.4517 44.1385C38.4517 44.3613 38.3796 44.542 38.2908 44.542C38.2019 44.542 38.1299 44.3613 38.1299 44.1385C38.1299 43.9158 38.2019 43.7351 38.2908 43.7351C38.3796 43.7351 38.4517 43.9158 38.4517 44.1385Z" fill="#FF9367" fill-opacity="1.000000" fill-rule="evenodd"/>
	<path id="Vector" d="M42.3127 43.8928C42.3127 44.071 42.2047 44.2156 42.0714 44.2156C41.9381 44.2156 41.8301 44.071 41.8301 43.8928C41.8301 43.7146 41.9381 43.5701 42.0714 43.5701C42.2047 43.5701 42.3127 43.7146 42.3127 43.8928Z" fill="#FF9367" fill-opacity="1.000000" fill-rule="evenodd"/>
	<path id="Vector" d="M112.136 70.0197L113.005 65.3582L122.272 67.3131L120.824 71.9746L112.136 70.0197Z" fill="#ABCAFA" fill-opacity="1.000000" fill-rule="nonzero"/>
	<path id="Vector" d="M117.124 70.967L118.335 66.8071L122.272 67.5243L120.758 71.9712L117.124 70.967Z" fill="#E4F0FD" fill-opacity="1.000000" fill-rule="nonzero"/>
	<path id="Vector" d="M131.281 87.4651C131.281 97.2689 123.358 105.217 113.584 105.217C103.81 105.217 95.887 97.2689 95.887 87.4651C95.887 77.6614 103.81 69.7137 113.584 69.7137C123.358 69.7137 131.281 77.6614 131.281 87.4651Z" fill="#E6F0FD" fill-opacity="1.000000" fill-rule="evenodd"/>
	<path id="Vector" d="M128.386 86.9828C128.386 94.9149 121.975 101.345 114.067 101.345C106.159 101.345 99.7483 94.9149 99.7483 86.9828C99.7483 79.0505 106.159 72.6202 114.067 72.6202C121.975 72.6202 128.386 79.0505 128.386 86.9828Z" fill="#D9E4FC" fill-opacity="1.000000" fill-rule="evenodd"/>
	<path id="Vector" d="M128.386 87.7887C128.386 95.7208 121.975 102.151 114.067 102.151C106.159 102.151 99.7483 95.7208 99.7483 87.7887C99.7483 79.8564 106.159 73.4261 114.067 73.4261C121.975 73.4261 128.386 79.8564 128.386 87.7887Z" fill="#FFFFFF" fill-opacity="1.000000" fill-rule="evenodd"/>
	<path id="Vector" d="M113.504 76.9756C113.37 76.9756 113.262 76.8672 113.262 76.7335L113.262 74.4742C113.262 74.3406 113.37 74.2322 113.504 74.2322C113.637 74.2322 113.745 74.3406 113.745 74.4742L113.745 76.7335C113.745 76.8672 113.637 76.9756 113.504 76.9756Z" fill="#D0E2FB" fill-opacity="1.000000" fill-rule="evenodd"/>
	<path id="Vector" d="M113.504 99.4067C113.37 99.4067 113.262 99.2983 113.262 99.1647L113.262 96.9054C113.262 96.7717 113.37 96.6633 113.504 96.6633C113.637 96.6633 113.745 96.7717 113.745 96.9054L113.745 99.1647C113.745 99.2983 113.637 99.4067 113.504 99.4067Z" fill="#D0E2FB" fill-opacity="1.000000" fill-rule="evenodd"/>
	<path id="Vector" d="M123.237 86.8197C123.237 86.6414 123.381 86.4969 123.559 86.4969L125.811 86.4969C125.989 86.4969 126.133 86.6414 126.133 86.8197C126.133 86.998 125.989 87.1425 125.811 87.1425L123.559 87.1425C123.381 87.1425 123.237 86.998 123.237 86.8197Z" fill="#D0E2FB" fill-opacity="1.000000" fill-rule="evenodd"/>
	<path id="Vector" d="M101.036 86.8197C101.036 86.6414 101.18 86.4969 101.358 86.4969L103.449 86.4969C103.627 86.4969 103.771 86.6414 103.771 86.8197C103.771 86.998 103.627 87.1425 103.449 87.1425L101.358 87.1425C101.18 87.1425 101.036 86.998 101.036 86.8197Z" fill="#D0E2FB" fill-opacity="1.000000" fill-rule="evenodd"/>
	<path id="Vector" d="M120.455 79.8704C120.34 79.7548 120.34 79.5673 120.455 79.4515L122.021 77.8812C122.136 77.7656 122.323 77.7656 122.438 77.8812C122.553 77.9969 122.553 78.1844 122.438 78.3L120.872 79.8704C120.757 79.9861 120.57 79.9861 120.455 79.8704Z" fill="#D0E2FB" fill-opacity="1.000000" fill-rule="evenodd"/>
	<path id="Vector" d="M104.695 95.6807C104.579 95.5649 104.579 95.3774 104.695 95.2618L106.26 93.6915C106.375 93.5758 106.562 93.5758 106.678 93.6915C106.793 93.807 106.793 93.9946 106.678 94.1102L105.112 95.6807C104.997 95.7961 104.81 95.7961 104.695 95.6807Z" fill="#D0E2FB" fill-opacity="1.000000" fill-rule="evenodd"/>
	<path id="Vector" d="M120.455 93.6915C120.57 93.5758 120.757 93.5758 120.872 93.6915L122.438 95.2618C122.553 95.3774 122.553 95.5649 122.438 95.6807C122.323 95.7961 122.136 95.7961 122.021 95.6807L120.455 94.1102C120.34 93.9946 120.34 93.807 120.455 93.6915Z" fill="#D0E2FB" fill-opacity="1.000000" fill-rule="evenodd"/>
	<path id="Vector" d="M104.695 77.8812C104.81 77.7656 104.997 77.7656 105.112 77.8812L106.678 79.4515C106.793 79.5673 106.793 79.7548 106.678 79.8704C106.562 79.9861 106.375 79.9861 106.26 79.8704L104.695 78.3C104.579 78.1844 104.579 77.9969 104.695 77.8812Z" fill="#D0E2FB" fill-opacity="1.000000" fill-rule="evenodd"/>
	<path id="Vector" d="M114.286 87.6653C113.986 87.5991 113.793 87.3044 113.853 87.002L115.748 77.3834C115.809 77.0718 116.114 76.8717 116.423 76.9398C116.723 77.006 116.916 77.3007 116.856 77.603L114.961 87.2216C114.9 87.5332 114.595 87.7334 114.286 87.6653Z" fill="#AACCFB" fill-opacity="1.000000" fill-rule="evenodd"/>
	<path id="Vector" d="M106.872 90.149C106.759 89.8456 106.913 89.5077 107.216 89.3953L113.596 87.0244C113.897 86.9125 114.232 87.0659 114.345 87.3678C114.458 87.6713 114.304 88.0092 114.001 88.1216L107.621 90.4924C107.32 90.6044 106.985 90.4509 106.872 90.149Z" fill="#AACCFB" fill-opacity="1.000000" fill-rule="evenodd"/>
	<path id="Vector" d="M115.516 87.2247C115.516 88.1605 114.795 88.9192 113.907 88.9192C113.018 88.9192 112.298 88.1605 112.298 87.2247C112.298 86.2889 113.018 85.5303 113.907 85.5303C114.795 85.5303 115.516 86.2889 115.516 87.2247Z" fill="#D0E2FB" fill-opacity="1.000000" fill-rule="evenodd"/>
	<g opacity="0.200000">
		<path id="Vector" d="M119.641 97.6003C119.493 97.4126 119.525 97.1399 119.705 96.9834C125.441 91.9883 125.034 85.9696 124.021 83.2238C123.938 83.0016 124.033 82.7501 124.248 82.6499C124.468 82.5471 124.729 82.6429 124.814 82.871C125.945 85.8951 126.35 92.3612 120.264 97.6608C120.078 97.823 119.793 97.7946 119.641 97.6003Z" fill="#D0E2FB" fill-opacity="1.000000" fill-rule="evenodd"/>
	</g>
	<path id="Vector" d="M135.143 92.4688C135.143 93.0927 134.567 93.5984 133.856 93.5984C133.145 93.5984 132.569 93.0927 132.569 92.4688C132.569 91.8448 133.145 91.3391 133.856 91.3391C134.567 91.3391 135.143 91.8448 135.143 92.4688Z" fill="#D0E2FB" fill-opacity="1.000000" fill-rule="evenodd"/>
	<path id="Vector" d="M17.1095 88.7206L17.6838 88.5303C17.9573 88.4396 18.1373 88.3038 18.2239 88.1229C18.3104 87.942 18.3163 87.7382 18.2416 87.5111C18.1692 87.2919 18.0471 87.1427 17.875 87.0642C17.7054 86.9849 17.5063 86.9832 17.2776 87.059C17.0712 87.1273 16.9174 87.2421 16.8158 87.403C16.7137 87.5613 16.6925 87.7316 16.7524 87.9136L15.6747 88.2709C15.5811 87.9867 15.573 87.7072 15.6508 87.4324C15.7301 87.1543 15.8856 86.9065 16.1172 86.6886C16.3512 86.47 16.6335 86.3057 16.9642 86.196C17.5386 86.0056 18.0342 85.9949 18.451 86.1636C18.8673 86.33 19.1549 86.655 19.3143 87.1388C19.3966 87.3883 19.3965 87.6428 19.3137 87.9026C19.2311 88.1625 19.0853 88.3892 18.8761 88.583C19.218 88.5913 19.4998 88.6804 19.7213 88.8506C19.9452 89.0197 20.1066 89.254 20.2052 89.5532C20.3646 90.037 20.3159 90.4834 20.059 90.8921C19.8046 91.3002 19.3877 91.6002 18.8083 91.7922C18.2664 91.972 17.7754 91.9757 17.3352 91.8036C16.8976 91.6304 16.6012 91.3083 16.4458 90.8369L17.5236 90.4796C17.5909 90.6841 17.7219 90.826 17.9163 90.9055C18.1133 90.9839 18.3235 90.9862 18.5472 90.912C18.8035 90.827 18.9813 90.6935 19.0811 90.511C19.1826 90.3252 19.1964 90.1201 19.1224 89.8956C18.9432 89.3519 18.5553 89.179 17.9586 89.3768L17.3881 89.566L17.1095 88.7206ZM24.072 89.964L22.9943 90.3215L21.621 86.1543L20.4662 86.981L20.1765 86.1021L22.1592 84.5485L22.2747 84.51L24.072 89.964Z" fill="#ABCAFA" fill-opacity="1.000000" fill-rule="nonzero"/>
	<g opacity="0.200000">
		<path id="Vector" d="M54.4121 106.126C54.3046 106.005 54.3147 105.819 54.4346 105.711L70.9829 90.7312C71.1039 90.6217 71.2908 90.6318 71.3992 90.754C71.5067 90.875 71.4966 91.0603 71.3767 91.1689L54.8285 106.149C54.7075 106.258 54.5205 106.248 54.4121 106.126Z" fill="#E0E2E6" fill-opacity="1.000000" fill-rule="evenodd"/>
	</g>
	<g opacity="0.200000">
		<path id="Vector" d="M75.1569 91.6085C75.2457 91.4714 75.4287 91.4329 75.5653 91.5223L94.3301 103.803C94.4667 103.892 94.5051 104.075 94.4159 104.212C94.327 104.349 94.144 104.388 94.0074 104.299L75.2427 92.0182C75.1061 91.929 75.0676 91.7455 75.1569 91.6085Z" fill="#E0E2E6" fill-opacity="1.000000" fill-rule="evenodd"/>
	</g>
	<path id="Vector" d="M66.8478 73.2654L78.1096 73.2654C84.0184 73.2654 88.8085 78.0701 88.8085 83.9969C88.8085 89.9237 84.0184 94.7284 78.1096 94.7284L66.8478 94.7284C60.939 94.7284 56.1489 89.9237 56.1489 83.9969C56.1489 78.0701 60.939 73.2654 66.8478 73.2654Z" fill="#F85232" fill-opacity="1.000000" fill-rule="evenodd"/>
	<path id="Vector" d="M66.8582 84.475L64.5957 84.475L64.5957 86.8191L63.4174 86.8191L63.4174 81.0826L67.1409 81.0826L67.1409 82.04L64.5957 82.04L64.5957 83.5214L66.8582 83.5214L66.8582 84.475ZM69.9415 84.7191L69.0028 84.7191L69.0028 86.8191L67.8243 86.8191L67.8243 81.0826L69.9492 81.0826C70.625 81.0826 71.1461 81.2336 71.5126 81.5358C71.8793 81.8378 72.0625 82.2645 72.0625 82.8162C72.0625 83.2075 71.9774 83.5345 71.8071 83.7971C71.6396 84.0573 71.3844 84.2648 71.0414 84.4198L72.2786 86.7639L72.2786 86.8191L71.0138 86.8191L69.9415 84.7191ZM69.0028 83.7618L69.9532 83.7618C70.2491 83.7618 70.4783 83.6869 70.6406 83.5372C70.8029 83.3849 70.8842 83.176 70.8842 82.9108C70.8842 82.6403 70.8069 82.4274 70.6525 82.2725C70.5006 82.1176 70.2662 82.04 69.9492 82.04L69.0028 82.04L69.0028 83.7618ZM76.4028 84.3331L74.1403 84.3331L74.1403 85.8695L76.7955 85.8695L76.7955 86.8191L72.962 86.8191L72.962 81.0826L76.7876 81.0826L76.7876 82.04L74.1403 82.04L74.1403 83.4071L76.4028 83.4071L76.4028 84.3331ZM80.9277 84.3331L78.6652 84.3331L78.6652 85.8695L81.3204 85.8695L81.3204 86.8191L77.4868 86.8191L77.4868 81.0826L81.3125 81.0826L81.3125 82.04L78.6652 82.04L78.6652 83.4071L80.9277 83.4071L80.9277 84.3331Z" fill="#FFFFFF" fill-opacity="1.000000" fill-rule="nonzero"/>
</svg>
