<svg width="20.000000" height="20.000000" viewBox="0 0 20 20" fill="none" xmlns="http://www.w3.org/2000/svg" xmlns:xlink="http://www.w3.org/1999/xlink">
	<desc>
			Created with Pixso.
	</desc>
	<defs>
		<clipPath id="clip2_1418">
			<rect id="lover 1" width="20.000000" height="20.000000" fill="white" fill-opacity="0"/>
		</clipPath>
	</defs>
	<rect id="lover 1" width="20.000000" height="20.000000" fill="#FFFFFF" fill-opacity="0"/>
	<g clip-path="url(#clip2_1418)">
		<path id="Vector" d="M0 6.77759C0 3.7489 2.45523 1.2937 5.48387 1.2937C6.82715 1.2937 8.05672 1.77747 9.00973 2.57959C9.58254 3.06177 10.4175 3.06177 10.9903 2.57959C11.9432 1.77734 13.1728 1.2937 14.5161 1.2937C17.5448 1.2937 20 3.7489 20 6.77759L20 6.61633C20 11.9346 13.5323 16.7312 10.9998 18.4055C10.3932 18.8065 9.60672 18.8065 9.0002 18.4055C6.46773 16.7312 0 11.9346 0 6.61633L0 6.77759Z" fill="#FF6464" fill-opacity="1.000000" fill-rule="nonzero"/>
		<path id="Vector" d="M0 6.77795C0 6.75476 0.00320292 6.73242 0.00347662 6.70923C0.00300789 6.67834 0 6.64771 0 6.6167L0 6.77795Z" fill="#D2555A" fill-opacity="1.000000" fill-rule="nonzero"/>
		<path id="Vector" d="M4.48639 7.13782C4.48615 7.16272 4.48392 7.18689 4.48392 7.21204L4.48392 7.03784C4.48392 7.07129 4.48607 7.10449 4.48639 7.13782C4.50764 4.52502 5.63603 2.32056 7.18974 1.56982C6.65267 1.3938 6.08111 1.2937 5.48502 1.2937C2.47955 1.2937 0.0418148 3.71216 0.00462723 6.70886C0.0791974 11.9901 6.48365 16.741 9.00139 18.4055C9.25974 18.5763 9.55096 18.6698 9.84682 18.6951C7.76932 16.3606 4.53084 11.9537 4.48639 7.13782Z" fill="#D2555A" fill-opacity="1.000000" fill-rule="nonzero"/>
		<path id="Vector" d="M18.8116 6.01343C18.8116 6.70471 18.2512 7.26514 17.5599 7.26514C16.8686 7.26514 16.3081 6.70471 16.3081 6.01343C16.3081 5.32214 16.8686 4.76172 17.5599 4.76172C18.2512 4.76172 18.8116 5.32214 18.8116 6.01343Z" fill="#FF8B8B" fill-opacity="1.000000" fill-rule="evenodd"/>
		<path id="Vector" d="M16.7371 3.62646C16.7371 4.05859 16.3868 4.40881 15.9548 4.40881C15.5227 4.40881 15.1724 4.05859 15.1724 3.62646C15.1724 3.19434 15.5227 2.84412 15.9548 2.84412C16.3868 2.84412 16.7371 3.19434 16.7371 3.62646Z" fill="#FFC1C1" fill-opacity="1.000000" fill-rule="evenodd"/>
	</g>
</svg>
