<svg width="20.000000" height="20.000000" viewBox="0 0 20 20" fill="none" xmlns="http://www.w3.org/2000/svg" xmlns:xlink="http://www.w3.org/1999/xlink">
	<desc>
			Created with Pixso.
	</desc>
	<defs>
		<clipPath id="clip2_1446">
			<rect id="medal 1" width="20.000000" height="20.000000" fill="white" fill-opacity="0"/>
		</clipPath>
	</defs>
	<rect id="medal 1" width="20.000000" height="20.000000" fill="#FFFFFF" fill-opacity="0"/>
	<g clip-path="url(#clip2_1446)">
		<path id="Vector" d="M5.915 8.64661L1.54733 16.8755L5.51356 16.509L7.43321 19.9994L11.8009 11.7706L5.915 8.64661Z" fill="#E95454" fill-opacity="1.000000" fill-rule="nonzero"/>
		<path id="Vector" d="M6.41529 17.6036C6.53785 17.3403 6.40966 17.0259 6.15329 16.8895L5.90192 16.7557C5.65056 16.6125 5.55489 16.2942 5.69183 16.0366C5.83064 15.7747 6.15704 15.6746 6.41904 15.8134L7.12937 16.1904C7.34885 16.3068 7.62398 16.2223 7.73716 16.0016L7.75467 15.9678C7.88473 15.7596 7.80782 15.4845 7.59146 15.37L5.46672 14.2427C5.20785 14.1051 5.08091 13.7917 5.2016 13.528C5.33478 13.2472 5.67119 13.1365 5.94194 13.2803L7.91287 14.3264C8.13234 14.4427 8.40747 14.3583 8.52378 14.1388L8.53503 14.1101L8.53816 14.1039C8.66384 13.8737 8.57568 13.5848 8.34369 13.4617L7.23817 12.8751C6.9793 12.7375 6.85237 12.4243 6.97493 12.1572C7.10686 11.8796 7.44452 11.7659 7.71527 11.9097L8.93647 12.5581C9.1647 12.6794 9.43733 12.5781 9.55551 12.348C9.55739 12.3448 9.55739 12.3448 9.55864 12.3418C9.56051 12.3386 9.56051 12.3386 9.56176 12.3354C9.6862 12.1085 9.61741 11.8259 9.38856 11.7052L8.07106 11.0061C7.81532 10.8705 7.68839 10.5571 7.80907 10.2933C7.94225 10.0126 8.27866 9.90186 8.54941 10.0457L11.7997 11.7709L7.43202 19.9998L6.22833 17.8118C6.30586 17.7593 6.37339 17.6942 6.41529 17.6036Z" fill="#ED6362" fill-opacity="1.000000" fill-rule="nonzero"/>
		<path id="Vector" d="M14.0852 8.64661L18.4529 16.8755L14.4866 16.509L12.567 19.9994L8.19931 11.7706L14.0852 8.64661Z" fill="#ED6362" fill-opacity="1.000000" fill-rule="nonzero"/>
		<path id="Vector" d="M13.585 17.6038C13.4624 17.3406 13.5906 17.026 13.847 16.8898L14.0983 16.756C14.3497 16.6127 14.4454 16.2944 14.3084 16.0369C14.1696 15.7748 13.8432 15.6748 13.5812 15.8136L12.8709 16.1907C12.6514 16.307 12.3763 16.2225 12.2631 16.0018L12.2456 15.968C12.1155 15.7599 12.1924 15.4847 12.4088 15.3702L14.5342 14.2422C14.793 14.1047 14.92 13.7914 14.7993 13.5276C14.6661 13.2468 14.3297 13.1361 14.0589 13.2799L12.088 14.326C11.8685 14.4424 11.5934 14.3579 11.4771 14.1384L11.4658 14.1097L11.4627 14.1034C11.337 13.8733 11.4252 13.5845 11.6572 13.4613L12.7627 12.8748C13.0216 12.7372 13.1485 12.424 13.026 12.1569C12.894 11.8793 12.5564 11.7655 12.2856 11.9093L11.0632 12.559C10.8349 12.6803 10.5623 12.579 10.4441 12.3489C10.4422 12.3457 10.4422 12.3457 10.441 12.3427C10.4391 12.3395 10.4391 12.3395 10.4379 12.3363C10.3134 12.1094 10.3822 11.8268 10.6111 11.7061L11.9286 11.007C12.1843 10.8713 12.3112 10.558 12.1906 10.2942C12.0574 10.0134 11.721 9.90271 11.4502 10.0465L8.19994 11.7717L12.5676 20.0006L13.7713 17.8126C13.6944 17.7595 13.6269 17.6945 13.585 17.6038Z" fill="#E95454" fill-opacity="1.000000" fill-rule="nonzero"/>
		<path id="Vector" d="M17.2978 7.29785C17.2978 11.3282 14.0304 14.5956 9.99998 14.5956C5.96952 14.5956 2.70218 11.3282 2.70218 7.29785C2.70218 3.26733 5.96952 0 9.99998 0C14.0304 0 17.2978 3.26733 17.2978 7.29785Z" fill="#FFCC5B" fill-opacity="1.000000" fill-rule="evenodd"/>
		<path id="Vector" d="M10.9898 6.46033L6.36515 6.46033C6.00561 6.46033 5.71047 6.16528 5.71047 5.80566L5.71547 5.76062L5.71547 5.75073C5.71047 5.37109 6.01999 5.06091 6.40017 5.06091L9.60542 5.06091C10.03 5.06091 10.4052 4.74646 10.4302 4.32129C10.4502 3.87671 10.0956 3.50146 9.65044 3.50146L6.2551 3.50146C5.88055 3.50146 5.60042 3.18701 5.60542 2.81177C5.60542 2.80676 5.60542 2.80676 5.60542 2.80176C5.60542 2.79675 5.60542 2.79675 5.60542 2.79175C5.60042 2.41724 5.87992 2.10205 6.2551 2.10205L9.80801 2.10205C10.2276 2.10205 10.6028 1.7876 10.6278 1.36731C10.6478 0.917725 10.2932 0.547607 9.84803 0.547607L7.24619 0.547607C4.59307 1.64124 2.72344 4.25 2.72344 7.29761C2.72344 10.3453 4.59307 12.9534 7.24681 14.0458L10.5502 14.0458C10.9698 14.0458 11.345 13.7313 11.37 13.311C11.39 12.8615 11.0355 12.4919 10.5903 12.4919L6.83224 12.4913C6.38891 12.4913 6.03187 12.1205 6.05563 11.6716C6.07751 11.2513 6.45519 10.9355 6.87601 10.9355L8.33295 10.9355C8.75189 10.9237 9.09018 10.5804 9.09018 10.1583C9.09018 9.72876 8.74064 9.37866 8.31044 9.37866L6.1019 9.37866C5.74236 9.37866 5.44722 9.08411 5.45222 8.724L5.45222 8.66895C5.42721 8.31433 5.71234 8.01428 6.06688 8.01428L10.9448 8.01428C11.3694 8.01428 11.7445 7.69971 11.7696 7.27954C11.7896 6.83057 11.4344 6.46033 10.9898 6.46033Z" fill="#FDBC4B" fill-opacity="1.000000" fill-rule="nonzero"/>
		<path id="Vector" d="M10.0001 12.5061C7.12752 12.5061 4.79079 10.1688 4.79079 7.29688C4.79079 4.4248 7.12752 2.08813 10.0001 2.08813C12.8727 2.08813 15.2094 4.42554 15.2094 7.29749C15.2094 10.1694 12.8727 12.5061 10.0001 12.5061Z" fill="#FFDB70" fill-opacity="1.000000" fill-rule="nonzero"/>
		<g opacity="0.200000">
			<path id="Vector" d="M15.2092 7.29785C15.2092 4.52649 13.0319 2.25989 10.2987 2.10352L9.81351 2.10352C9.49336 2.10352 9.2076 2.34363 9.18822 2.66382C9.17321 3.00647 9.44334 3.28906 9.78287 3.28906L12.6492 3.28967C12.9875 3.28967 13.2595 3.57239 13.2414 3.91504C13.2245 4.23572 12.9368 4.47656 12.6154 4.47656L11.5043 4.47656C11.1848 4.48584 10.9265 4.74731 10.9265 5.06934C10.9265 5.39697 11.1935 5.66394 11.5212 5.66394L13.2057 5.66394C13.4802 5.66394 13.7047 5.88904 13.701 6.16296L13.701 6.20422C13.7197 6.47498 13.5027 6.70312 13.232 6.70312L9.51212 6.70312C9.18822 6.70312 8.90246 6.94324 8.88307 7.26343C8.86807 7.60608 9.13819 7.88867 9.47773 7.88867L13.0044 7.88867C13.2789 7.88867 13.5034 8.11389 13.5034 8.3877L13.4996 8.42212L13.4996 8.42957C13.5034 8.71912 13.267 8.95544 12.9775 8.95544L10.5326 8.95544C10.2087 8.95544 9.92294 9.19556 9.90355 9.51953C9.88854 9.8584 10.1587 10.1448 10.4982 10.1448L13.0875 10.1448C13.3733 10.1448 13.5865 10.3849 13.5828 10.6707C13.5828 10.6744 13.5828 10.6744 13.5828 10.6782C13.5828 10.6819 13.5828 10.6819 13.5828 10.6857C13.5865 10.9714 13.3733 11.2115 13.0875 11.2115L10.3781 11.2115C10.058 11.2115 9.77224 11.4517 9.75286 11.7719C9.73785 12.1151 10.008 12.3971 10.3475 12.3971L11.0622 12.3971C13.4277 11.9044 15.2092 9.8053 15.2092 7.29785Z" fill="#FFFFFF" fill-opacity="1.000000" fill-rule="nonzero"/>
		</g>
		<path id="Vector" d="M13.6366 6.14343L11.1029 6.14343L10.3194 3.73364C10.2187 3.42407 9.7804 3.42407 9.67973 3.73364L8.89686 6.14343L6.36317 6.14343C6.03739 6.14343 5.9017 6.56055 6.16558 6.75195L8.21529 8.24133L7.43242 10.6512C7.33175 10.9607 7.68629 11.2184 7.95017 11.027L9.99988 9.5376L12.0496 11.027C12.3135 11.2184 12.668 10.9607 12.5673 10.6512L11.7845 8.24133L13.8342 6.75195C14.0974 6.56055 13.9624 6.14343 13.6366 6.14343Z" fill="#EC9922" fill-opacity="1.000000" fill-rule="nonzero"/>
	</g>
</svg>
